<svg xmlns="http://www.w3.org/2000/svg" viewBox="0 0 23 23">
  <defs>
    <style>
      .cls-1 {
        fill: #fff3d9;
      }
    </style>
  </defs>
  <path id="facebook-facebook" class="cls-1" d="M50.731,29H30.27A1.269,1.269,0,0,0,29,30.27V50.731A1.269,1.269,0,0,0,30.27,52H41.285V43.093h-3V39.622h3v-2.56c0-2.971,1.814-4.588,4.465-4.588a24.553,24.553,0,0,1,2.678.137v3.1H46.59c-1.442,0-1.721.685-1.721,1.69v2.216h3.437l-.448,3.471H44.87V52h5.861A1.269,1.269,0,0,0,52,50.731V30.27A1.269,1.269,0,0,0,50.731,29Z" transform="translate(-29 -29)"/>
</svg>
