<svg xmlns="http://www.w3.org/2000/svg" width="12" height="12" viewBox="0 0 12 12">
  <path id="filter" d="M147.211,89.212c-3.314,0-6-.839-6-1.875V86.212l4.5-4.5v-3.75c0-.414.672-.75,1.5-.75s1.5.336,1.5.75v3.75l4.5,4.5v1.125c0,1.036-2.686,1.875-6,1.875Zm-4.894-1.627a5.1,5.1,0,0,0,1.14.439,16.323,16.323,0,0,0,7.508,0,5.1,5.1,0,0,0,1.14-.439,1.3,1.3,0,0,0,.332-.248,1.3,1.3,0,0,0-.332-.248,5.1,5.1,0,0,0-1.14-.439,16.323,16.323,0,0,0-7.508,0,5.1,5.1,0,0,0-1.14.439,1.3,1.3,0,0,0-.332.248A1.3,1.3,0,0,0,142.317,87.585Z" transform="translate(153.211 89.212) rotate(180)" fill="#fff"/>
</svg>
