<svg xmlns="http://www.w3.org/2000/svg" viewBox="0 0 23 18.691">
  <defs>
    <style>
      .cls-1 {
        fill: #fff3d9;
      }
    </style>
  </defs>
  <path id="twitter-twitter" class="cls-1" d="M51.16,37.087a9.426,9.426,0,0,1-2.71.743,4.734,4.734,0,0,0,2.075-2.611,9.444,9.444,0,0,1-3,1.145,4.723,4.723,0,0,0-8.041,4.3,13.4,13.4,0,0,1-9.726-4.93,4.723,4.723,0,0,0,1.46,6.3,4.7,4.7,0,0,1-2.137-.59c0,.02,0,.039,0,.06a4.722,4.722,0,0,0,3.785,4.627,4.731,4.731,0,0,1-2.131.081,4.723,4.723,0,0,0,4.408,3.277,9.466,9.466,0,0,1-5.861,2.02,9.594,9.594,0,0,1-1.125-.066A13.42,13.42,0,0,0,48.819,40.14q0-.307-.014-.61A9.583,9.583,0,0,0,51.16,37.087Z" transform="translate(-28.16 -34.874)"/>
</svg>
