<svg id="Layer_1" data-name="Layer 1" xmlns="http://www.w3.org/2000/svg" viewBox="0 0 754.99 96.14"><defs><style>.cls-1{isolation:isolate;}.cls-2{fill:#191b1c;}.cls-3{fill:#39c1d0;}</style></defs><g id="Group_317" data-name="Group 317"><g id="Worship_With_Us" data-name="Worship With Us" class="cls-1"><g class="cls-1"><path class="cls-2" d="M190.88,247l-16.8,51.8H158.39l-9.91-31.53-10.36,31.53H122.43L105.63,247h15.1L131.16,280l11-33.08h13.47L166,280.33,176.89,247Z" transform="translate(-104.45 -245.92)"/><path class="cls-2" d="M206.83,296.32a26.48,26.48,0,0,1,0-46.92,33,33,0,0,1,29.52,0,26.48,26.48,0,0,1,0,46.92,33,33,0,0,1-29.52,0Zm21.86-10.51a13.24,13.24,0,0,0,5-5.22,17.07,17.07,0,0,0,0-15.46,13.24,13.24,0,0,0-5-5.22,14.57,14.57,0,0,0-14.21,0,13.31,13.31,0,0,0-5,5.22,17.07,17.07,0,0,0,0,15.46,13.31,13.31,0,0,0,5,5.22,14.57,14.57,0,0,0,14.21,0Z" transform="translate(-104.45 -245.92)"/><path class="cls-2" d="M280.71,285h-8v13.76H258.07V247h23.68A29.59,29.59,0,0,1,294,249.29a18,18,0,0,1,8,6.66,19.74,19.74,0,0,1,.19,20,17.79,17.79,0,0,1-7.51,6.55l11.17,16.28H290.11Zm7-24.5q-2.3-2-6.81-2h-8.14v15.17h8.14q4.51,0,6.81-2a6.93,6.93,0,0,0,2.29-5.58A7.06,7.06,0,0,0,287.67,260.5Z" transform="translate(-104.45 -245.92)"/><path class="cls-2" d="M318.82,298.24a29.92,29.92,0,0,1-9.62-4.14L314,283.29a32.86,32.86,0,0,0,17.1,5.11q8.43,0,8.43-4.22a3.48,3.48,0,0,0-2.4-3.29,44,44,0,0,0-7.73-2.26,74.06,74.06,0,0,1-9.77-2.7,16.44,16.44,0,0,1-6.74-4.62,12.54,12.54,0,0,1-2.81-8.59,14.88,14.88,0,0,1,2.59-8.55,17.34,17.34,0,0,1,7.73-6A31.86,31.86,0,0,1,333,245.92a44.82,44.82,0,0,1,10.07,1.15,31.08,31.08,0,0,1,8.73,3.37l-4.52,10.88a30.09,30.09,0,0,0-14.35-4q-4.36,0-6.37,1.29a3.89,3.89,0,0,0-2,3.37,3.33,3.33,0,0,0,2.36,3.11,42.11,42.11,0,0,0,7.63,2.14,70.51,70.51,0,0,1,9.8,2.71,17,17,0,0,1,6.73,4.58q2.85,3.15,2.85,8.55a14.56,14.56,0,0,1-2.59,8.44,17.66,17.66,0,0,1-7.77,6A31.47,31.47,0,0,1,331,299.8,47.75,47.75,0,0,1,318.82,298.24Z" transform="translate(-104.45 -245.92)"/><path class="cls-2" d="M410,247v51.8H395.34v-20.2h-20v20.2H360.71V247h14.65v19.46h20V247Z" transform="translate(-104.45 -245.92)"/><path class="cls-2" d="M420.35,247H435v51.8H420.35Z" transform="translate(-104.45 -245.92)"/><path class="cls-2" d="M481.33,249.29a18.1,18.1,0,0,1,8,6.66,18.32,18.32,0,0,1,2.81,10.18,18.1,18.1,0,0,1-2.81,10.13,18.3,18.3,0,0,1-8,6.63,29.65,29.65,0,0,1-12.21,2.33h-9v13.54H445.44V247h23.68A29.65,29.65,0,0,1,481.33,249.29ZM475,271.71a7,7,0,0,0,2.29-5.58A7.09,7.09,0,0,0,475,260.5q-2.3-2-6.81-2h-8.14v15.17h8.14Q472.75,273.67,475,271.71Z" transform="translate(-104.45 -245.92)"/></g><g class="cls-1"><path class="cls-2" d="M600.17,247l-16.95,51.8H570.35L559,263.68l-11.77,35.08h-12.8l-17-51.8h12.43l11.7,36.41L553.7,247h11.1l11.84,36.7L588.7,247Z" transform="translate(-104.45 -245.92)"/><path class="cls-2" d="M606.83,247h12v51.8h-12Z" transform="translate(-104.45 -245.92)"/><path class="cls-2" d="M641.83,256.73H625.25V247h45.14v9.77H653.82v42h-12Z" transform="translate(-104.45 -245.92)"/><path class="cls-2" d="M724.34,247v51.8h-12V277.52H688.82v21.24h-12V247h12v20.42h23.53V247Z" transform="translate(-104.45 -245.92)"/><path class="cls-2" d="M763.3,293.5q-6.18-6.13-6.18-17.53V247h12v28.56q0,13.92,11.54,13.92c3.75,0,6.61-1.13,8.59-3.37s3-5.76,3-10.55V247H804v29q0,11.4-6.18,17.53t-17.28,6.15Q769.48,299.65,763.3,293.5Z" transform="translate(-104.45 -245.92)"/><path class="cls-2" d="M821,298a27.61,27.61,0,0,1-9.21-4.33l4.07-9a28,28,0,0,0,7.91,3.92A30,30,0,0,0,833,290q5.1,0,7.55-1.52a4.58,4.58,0,0,0,2.44-4,3.84,3.84,0,0,0-1.44-3.07,11,11,0,0,0-3.7-2c-1.51-.49-3.54-1-6.11-1.62A85.83,85.83,0,0,1,822,275a15.79,15.79,0,0,1-6.48-4.52,12.18,12.18,0,0,1-2.7-8.29,14.45,14.45,0,0,1,2.44-8.17,16.41,16.41,0,0,1,7.37-5.81,30,30,0,0,1,12-2.15,39.83,39.83,0,0,1,9.7,1.19,28.59,28.59,0,0,1,8.28,3.4l-3.7,9.1a28.9,28.9,0,0,0-14.35-4.07q-5,0-7.44,1.63a5,5,0,0,0-2.4,4.29,4.19,4.19,0,0,0,2.77,4,43.86,43.86,0,0,0,8.47,2.55,84.4,84.4,0,0,1,9.7,2.82,15.93,15.93,0,0,1,6.47,4.44,11.9,11.9,0,0,1,2.7,8.21,14.14,14.14,0,0,1-2.47,8.1A16.75,16.75,0,0,1,845,297.5a30.35,30.35,0,0,1-12.06,2.15A42.36,42.36,0,0,1,821,298Z" transform="translate(-104.45 -245.92)"/></g></g><g id="Sunday_mornings_at_8:30_or_10:30" data-name="Sunday mornings at 8:30 or 10:30" class="cls-1"><g class="cls-1"><path class="cls-2" d="M377.36,341.5a9.48,9.48,0,0,1-3.11-1.47l1.37-3a9.2,9.2,0,0,0,2.68,1.33,10.1,10.1,0,0,0,3.1.5,5,5,0,0,0,2.55-.51,1.55,1.55,0,0,0,.82-1.37,1.28,1.28,0,0,0-.49-1,3.61,3.61,0,0,0-1.25-.67c-.5-.16-1.19-.35-2.06-.55a26.69,26.69,0,0,1-3.27-.95,5.27,5.27,0,0,1-2.19-1.52,4.1,4.1,0,0,1-.91-2.8,4.84,4.84,0,0,1,.82-2.76,5.57,5.57,0,0,1,2.49-2A10.21,10.21,0,0,1,382,324a13.33,13.33,0,0,1,3.28.4,9.85,9.85,0,0,1,2.8,1.15l-1.25,3.08a9.76,9.76,0,0,0-4.85-1.38,4.55,4.55,0,0,0-2.52.55,1.68,1.68,0,0,0-.81,1.45,1.42,1.42,0,0,0,.94,1.34,14.56,14.56,0,0,0,2.86.86,28.84,28.84,0,0,1,3.28.95,5.41,5.41,0,0,1,2.18,1.5,4,4,0,0,1,.92,2.77,4.76,4.76,0,0,1-.84,2.74,5.69,5.69,0,0,1-2.51,2,10.34,10.34,0,0,1-4.08.72A14.49,14.49,0,0,1,377.36,341.5Z" transform="translate(-104.45 -245.92)"/><path class="cls-2" d="M393.51,340a8,8,0,0,1-2.09-5.92v-9.8h4.05v9.65q0,4.69,3.9,4.7a3.65,3.65,0,0,0,2.9-1.14,5.27,5.27,0,0,0,1-3.56v-9.65h4v9.8A8.27,8.27,0,0,1,393.51,340Z" transform="translate(-104.45 -245.92)"/><path class="cls-2" d="M427.32,324.26v17.5H424l-8.73-10.63v10.63h-4v-17.5h3.35l8.7,10.62V324.26Z" transform="translate(-104.45 -245.92)"/><path class="cls-2" d="M431.47,324.26h7.95a11.12,11.12,0,0,1,5,1.09,8.08,8.08,0,0,1,3.4,3.06,9.35,9.35,0,0,1,0,9.2,8.08,8.08,0,0,1-3.4,3.06,11.12,11.12,0,0,1-5,1.09h-7.95Zm7.75,14.17a5.86,5.86,0,0,0,4.19-1.46,5.81,5.81,0,0,0,0-7.92,5.86,5.86,0,0,0-4.19-1.46h-3.7v10.84Z" transform="translate(-104.45 -245.92)"/><path class="cls-2" d="M463.4,338h-8.13l-1.55,3.75h-4.15l7.8-17.5h4l7.83,17.5H465Zm-1.28-3.08-2.77-6.7-2.78,6.7Z" transform="translate(-104.45 -245.92)"/><path class="cls-2" d="M478.35,335.56v6.2H474.3v-6.25l-6.78-11.25h4.3L476.5,332l4.67-7.77h4Z" transform="translate(-104.45 -245.92)"/><path class="cls-2" d="M509.84,341.76l0-10.5-5.15,8.65h-1.83l-5.12-8.43v10.28h-3.8v-17.5h3.35l6.55,10.87,6.45-10.87h3.32l0,17.5Z" transform="translate(-104.45 -245.92)"/><path class="cls-2" d="M521.36,340.88a8.75,8.75,0,0,1-3.43-3.23,8.93,8.93,0,0,1,3.43-12.52,10.87,10.87,0,0,1,9.81,0,8.89,8.89,0,0,1,3.42,3.24,8.92,8.92,0,0,1-3.42,12.51,10.78,10.78,0,0,1-9.81,0Zm7.71-3a5.14,5.14,0,0,0,2-2,6.28,6.28,0,0,0,0-5.8,5.14,5.14,0,0,0-2-2,5.88,5.88,0,0,0-5.6,0,5.14,5.14,0,0,0-2,2,6.2,6.2,0,0,0,0,5.8,5.14,5.14,0,0,0,2,2,5.88,5.88,0,0,0,5.6,0Z" transform="translate(-104.45 -245.92)"/><path class="cls-2" d="M550,341.76l-3.37-4.88h-3.73v4.88h-4.05v-17.5h7.58a9.84,9.84,0,0,1,4,.77,6,6,0,0,1,2.63,2.2,6.05,6.05,0,0,1,.93,3.38,5.7,5.7,0,0,1-3.6,5.52l3.92,5.63Zm-1-13.41a4.23,4.23,0,0,0-2.78-.79h-3.3v6.1h3.3a4.23,4.23,0,0,0,2.78-.8,3.15,3.15,0,0,0,0-4.51Z" transform="translate(-104.45 -245.92)"/><path class="cls-2" d="M573.32,324.26v17.5H570l-8.72-10.63v10.63h-4v-17.5h3.35l8.7,10.62V324.26Z" transform="translate(-104.45 -245.92)"/><path class="cls-2" d="M577.47,324.26h4v17.5h-4Z" transform="translate(-104.45 -245.92)"/><path class="cls-2" d="M601.72,324.26v17.5h-3.33l-8.72-10.63v10.63h-4v-17.5H589l8.7,10.62V324.26Z" transform="translate(-104.45 -245.92)"/><path class="cls-2" d="M617.69,332.73h3.7v7.11a10.62,10.62,0,0,1-3.3,1.64,12.6,12.6,0,0,1-3.77.58,10.28,10.28,0,0,1-4.9-1.16,8.63,8.63,0,0,1-3.41-3.23,9.38,9.38,0,0,1,0-9.32,8.61,8.61,0,0,1,3.43-3.23,10.51,10.51,0,0,1,4.95-1.16,11,11,0,0,1,4.18.77,8.34,8.34,0,0,1,3.15,2.25l-2.6,2.4a6,6,0,0,0-4.53-2,6.15,6.15,0,0,0-3,.7,5,5,0,0,0-2,2,6.24,6.24,0,0,0,0,5.82,5.22,5.22,0,0,0,2,2,6,6,0,0,0,2.93.71,6.55,6.55,0,0,0,3.15-.75Z" transform="translate(-104.45 -245.92)"/><path class="cls-2" d="M626.88,341.5a9.48,9.48,0,0,1-3.11-1.47l1.37-3a9.33,9.33,0,0,0,2.68,1.33,10.1,10.1,0,0,0,3.1.5,5,5,0,0,0,2.55-.51,1.55,1.55,0,0,0,.82-1.37,1.3,1.3,0,0,0-.48-1,3.81,3.81,0,0,0-1.25-.67c-.51-.16-1.2-.35-2.07-.55a26.69,26.69,0,0,1-3.27-.95,5.27,5.27,0,0,1-2.19-1.52,4.1,4.1,0,0,1-.91-2.8,4.84,4.84,0,0,1,.82-2.76,5.57,5.57,0,0,1,2.49-2,10.21,10.21,0,0,1,4.06-.72,13.33,13.33,0,0,1,3.28.4,9.85,9.85,0,0,1,2.8,1.15l-1.25,3.08a9.76,9.76,0,0,0-4.85-1.38,4.49,4.49,0,0,0-2.51.55,1.67,1.67,0,0,0-.82,1.45,1.44,1.44,0,0,0,.94,1.34,14.78,14.78,0,0,0,2.86.86,28.24,28.24,0,0,1,3.28.95,5.51,5.51,0,0,1,2.19,1.5,4.05,4.05,0,0,1,.91,2.77,4.76,4.76,0,0,1-.84,2.74,5.69,5.69,0,0,1-2.51,2,10.34,10.34,0,0,1-4.08.72A14.49,14.49,0,0,1,626.88,341.5Z" transform="translate(-104.45 -245.92)"/><path class="cls-2" d="M659.69,338h-8.12L650,341.76h-4.15l7.8-17.5h4l7.82,17.5h-4.25Zm-1.27-3.08-2.78-6.7-2.77,6.7Z" transform="translate(-104.45 -245.92)"/><path class="cls-2" d="M670.07,327.56h-5.6v-3.3h15.25v3.3h-5.6v14.2h-4Z" transform="translate(-104.45 -245.92)"/><path class="cls-2" d="M701.83,334.26a4.31,4.31,0,0,1,.69,2.42,4.53,4.53,0,0,1-.93,2.84,5.83,5.83,0,0,1-2.6,1.88,11.68,11.68,0,0,1-7.74,0,5.85,5.85,0,0,1-2.57-1.88,4.57,4.57,0,0,1-.91-2.84,4.31,4.31,0,0,1,.69-2.42,4.9,4.9,0,0,1,2-1.7,4.25,4.25,0,0,1-1.5-1.51,4.14,4.14,0,0,1-.53-2.09,4.31,4.31,0,0,1,.85-2.65,5.46,5.46,0,0,1,2.38-1.74,9.27,9.27,0,0,1,3.5-.61,9.52,9.52,0,0,1,3.54.61,5.4,5.4,0,0,1,2.38,1.74,4.24,4.24,0,0,1,.85,2.65,4.13,4.13,0,0,1-.52,2.09,4.18,4.18,0,0,1-1.53,1.51A4.92,4.92,0,0,1,701.83,334.26Zm-4.3,4.14a2.22,2.22,0,0,0,.89-1.84,2.18,2.18,0,0,0-.89-1.83,3.9,3.9,0,0,0-2.41-.67,3.82,3.82,0,0,0-2.38.67,2.19,2.19,0,0,0-.87,1.83,2.22,2.22,0,0,0,.87,1.85,3.82,3.82,0,0,0,2.38.68A3.9,3.9,0,0,0,697.53,338.4Zm-4.37-10.88a2.11,2.11,0,0,0,0,3.19,3.13,3.13,0,0,0,2,.57,3.23,3.23,0,0,0,2-.57,1.88,1.88,0,0,0,.75-1.58,1.93,1.93,0,0,0-.75-1.61,3.17,3.17,0,0,0-2-.59A3.05,3.05,0,0,0,693.16,327.52Z" transform="translate(-104.45 -245.92)"/><path class="cls-2" d="M704.94,332.28a2.39,2.39,0,0,1-.7-1.75,2.3,2.3,0,0,1,.7-1.73,2.56,2.56,0,0,1,3.45,0,2.26,2.26,0,0,1,.7,1.73,2.35,2.35,0,0,1-.7,1.75,2.48,2.48,0,0,1-3.45,0Zm0,9a2.41,2.41,0,0,1-.7-1.75,2.3,2.3,0,0,1,.7-1.74,2.58,2.58,0,0,1,3.45,0,2.27,2.27,0,0,1,.7,1.74,2.37,2.37,0,0,1-.7,1.75,2.48,2.48,0,0,1-3.45,0Z" transform="translate(-104.45 -245.92)"/><path class="cls-2" d="M722.62,333.1a4.73,4.73,0,0,1,1.22,3.31,5.16,5.16,0,0,1-.8,2.81,5.46,5.46,0,0,1-2.44,2.06,9.25,9.25,0,0,1-4,.78,13.52,13.52,0,0,1-3.63-.49,9.17,9.17,0,0,1-3-1.39l1.57-3.09a7.83,7.83,0,0,0,2.31,1.16,9.14,9.14,0,0,0,2.69.41,4.26,4.26,0,0,0,2.4-.59,1.87,1.87,0,0,0,.88-1.66c0-1.43-1.09-2.15-3.28-2.15h-1.85v-2.67l3.6-4.08h-7.45v-3.25H723v2.62l-3.95,4.5A5.91,5.91,0,0,1,722.62,333.1Z" transform="translate(-104.45 -245.92)"/><path class="cls-2" d="M729.34,341a7.17,7.17,0,0,1-2.66-3.11,12.78,12.78,0,0,1,0-9.72,6.92,6.92,0,0,1,6.54-4.19,6.92,6.92,0,0,1,6.53,4.19,12.66,12.66,0,0,1,0,9.72A7.28,7.28,0,0,1,729.34,341Zm6.39-3.72a10.38,10.38,0,0,0,0-8.5,3,3,0,0,0-5,0,10.38,10.38,0,0,0,0,8.5,3,3,0,0,0,5,0Z" transform="translate(-104.45 -245.92)"/><path class="cls-2" d="M754.43,340.88a8.75,8.75,0,0,1-3.43-3.23,8.93,8.93,0,0,1,3.43-12.52,10.87,10.87,0,0,1,9.81,0,9,9,0,0,1,3.43,3.24,8.91,8.91,0,0,1-3.43,12.51,10.78,10.78,0,0,1-9.81,0Zm7.71-3a5.14,5.14,0,0,0,2-2,6.2,6.2,0,0,0,0-5.8,5.14,5.14,0,0,0-2-2,5.88,5.88,0,0,0-5.6,0,5.14,5.14,0,0,0-2,2,6.28,6.28,0,0,0,0,5.8,5.14,5.14,0,0,0,2,2,5.88,5.88,0,0,0,5.6,0Z" transform="translate(-104.45 -245.92)"/><path class="cls-2" d="M783.12,341.76l-3.38-4.88H776v4.88h-4v-17.5h7.57a9.84,9.84,0,0,1,4,.77,6.06,6.06,0,0,1,2.64,2.2,6.13,6.13,0,0,1,.92,3.38,5.7,5.7,0,0,1-3.6,5.52l3.93,5.63Zm-1-13.41a4.22,4.22,0,0,0-2.77-.79H776v6.1h3.3a4.22,4.22,0,0,0,2.77-.8,3.15,3.15,0,0,0,0-4.51Z" transform="translate(-104.45 -245.92)"/><path class="cls-2" d="M803.07,324.26v17.5H799V327.51h-3.5v-3.25Z" transform="translate(-104.45 -245.92)"/><path class="cls-2" d="M809.74,341a7.17,7.17,0,0,1-2.66-3.11,12.78,12.78,0,0,1,0-9.72,7.25,7.25,0,0,1,2.66-3.12,7.55,7.55,0,0,1,7.75,0,7.25,7.25,0,0,1,2.66,3.12,12.66,12.66,0,0,1,0,9.72,7.17,7.17,0,0,1-2.66,3.11,7.49,7.49,0,0,1-7.75,0Zm6.39-3.72a10.38,10.38,0,0,0,0-8.5,3,3,0,0,0-5,0,10.38,10.38,0,0,0,0,8.5,3,3,0,0,0,5,0Z" transform="translate(-104.45 -245.92)"/><path class="cls-2" d="M823.67,332.28a2.36,2.36,0,0,1-.71-1.75,2.27,2.27,0,0,1,.71-1.73,2.37,2.37,0,0,1,1.72-.67,2.41,2.41,0,0,1,1.73.67,2.3,2.3,0,0,1,.7,1.73,2.39,2.39,0,0,1-.7,1.75,2.35,2.35,0,0,1-1.73.7A2.31,2.31,0,0,1,823.67,332.28Zm0,9a2.38,2.38,0,0,1-.71-1.75,2.28,2.28,0,0,1,.71-1.74,2.4,2.4,0,0,1,1.72-.66,2.44,2.44,0,0,1,1.73.66,2.3,2.3,0,0,1,.7,1.74,2.41,2.41,0,0,1-.7,1.75,2.35,2.35,0,0,1-1.73.7A2.31,2.31,0,0,1,823.67,341.26Z" transform="translate(-104.45 -245.92)"/><path class="cls-2" d="M841.34,333.1a4.7,4.7,0,0,1,1.23,3.31,5.17,5.17,0,0,1-.81,2.81,5.48,5.48,0,0,1-2.43,2.06,9.28,9.28,0,0,1-4,.78,13.54,13.54,0,0,1-3.64-.49,9.27,9.27,0,0,1-3-1.39l1.57-3.09a7.76,7.76,0,0,0,2.32,1.16,9,9,0,0,0,2.68.41,4.32,4.32,0,0,0,2.41-.59,1.88,1.88,0,0,0,.87-1.66c0-1.43-1.09-2.15-3.28-2.15h-1.84v-2.67l3.59-4.08h-7.45v-3.25h12.25v2.62l-3.94,4.5A5.91,5.91,0,0,1,841.34,333.1Z" transform="translate(-104.45 -245.92)"/><path class="cls-2" d="M848.06,341a7.17,7.17,0,0,1-2.66-3.11,12.78,12.78,0,0,1,0-9.72,6.92,6.92,0,0,1,6.54-4.19,7.12,7.12,0,0,1,3.87,1.07,7.21,7.21,0,0,1,2.67,3.12,12.78,12.78,0,0,1,0,9.72,7.12,7.12,0,0,1-2.67,3.11,7.49,7.49,0,0,1-7.75,0Zm6.39-3.72a10.28,10.28,0,0,0,0-8.5,3,3,0,0,0-5,0,10.38,10.38,0,0,0,0,8.5,3,3,0,0,0,5,0Z" transform="translate(-104.45 -245.92)"/></g></g><rect id="Rectangle_109" data-name="Rectangle 109" class="cls-3" y="81.84" width="224" height="10"/></g></svg>