<?xml version="1.0" encoding="utf-8"?>
<!-- Generator: Adobe Illustrator 25.3.1, SVG Export Plug-In . SVG Version: 6.00 Build 0)  -->
<svg version="1.1" id="Layer_1" xmlns="http://www.w3.org/2000/svg" xmlns:xlink="http://www.w3.org/1999/xlink" x="0px" y="0px"
	 viewBox="0 0 755 95.1" style="enable-background:new 0 0 755 95.1;" xml:space="preserve">
<style type="text/css">
	.st0{enable-background:new    ;}
	.st1{fill:#1A1B1D;}
	.st2{fill:#28C7D5;}
</style>
<g id="Group_317" transform="translate(-139 -196)">
	<g class="st0">
		<path class="st1" d="M225.4,196l-16.8,51.8h-15.7l-9.9-31.5l-10.4,31.5H157L140.2,196h15.1l10.4,33.1l11-33.1h13.5l10.4,33.4
			l10.9-33.4H225.4z"/>
		<path class="st1" d="M241.4,245.4c-4.4-2.3-7.8-5.5-10.3-9.6c-2.5-4.1-3.7-8.7-3.7-13.8c0-5.1,1.2-9.7,3.7-13.8
			c2.5-4.1,5.9-7.3,10.3-9.6c4.4-2.3,9.3-3.5,14.8-3.5c5.5,0,10.4,1.2,14.8,3.5c4.4,2.3,7.8,5.5,10.3,9.6c2.5,4.1,3.7,8.7,3.7,13.8
			c0,5.1-1.2,9.7-3.7,13.8c-2.5,4.1-5.9,7.3-10.3,9.6c-4.4,2.3-9.3,3.5-14.8,3.5C250.7,248.8,245.7,247.7,241.4,245.4z M263.2,234.8
			c2.1-1.2,3.8-3,5-5.2c1.2-2.2,1.9-4.8,1.9-7.7c0-2.9-0.6-5.5-1.9-7.7c-1.2-2.2-2.9-4-5-5.2c-2.1-1.2-4.5-1.9-7.1-1.9
			c-2.6,0-5,0.6-7.1,1.9c-2.1,1.2-3.8,3-5,5.2c-1.2,2.2-1.9,4.8-1.9,7.7c0,2.9,0.6,5.5,1.9,7.7c1.2,2.2,2.9,4,5,5.2
			c2.1,1.2,4.5,1.9,7.1,1.9C258.8,236.7,261.1,236.1,263.2,234.8z"/>
		<path class="st1" d="M315.3,234h-8v13.8h-14.7V196h23.7c4.7,0,8.8,0.8,12.2,2.3c3.5,1.6,6.1,3.8,8,6.7c1.9,2.9,2.8,6.3,2.8,10.2
			c0,3.7-0.9,7-2.6,9.8c-1.8,2.8-4.3,5-7.5,6.5l11.2,16.3h-15.7L315.3,234z M322.2,209.5c-1.5-1.3-3.8-2-6.8-2h-8.1v15.2h8.1
			c3,0,5.3-0.7,6.8-2c1.5-1.3,2.3-3.2,2.3-5.6C324.5,212.7,323.8,210.9,322.2,209.5z"/>
		<path class="st1" d="M353.4,247.3c-3.9-1-7.2-2.4-9.6-4.1l4.8-10.8c2.3,1.5,5,2.8,8.1,3.7c3.1,0.9,6.1,1.4,9,1.4
			c5.6,0,8.4-1.4,8.4-4.2c0-1.5-0.8-2.6-2.4-3.3c-1.6-0.7-4.2-1.5-7.7-2.3c-3.9-0.8-7.2-1.7-9.8-2.7c-2.6-1-4.9-2.5-6.7-4.6
			c-1.9-2.1-2.8-5-2.8-8.6c0-3.2,0.9-6,2.6-8.5c1.7-2.5,4.3-4.6,7.7-6c3.4-1.5,7.6-2.2,12.6-2.2c3.4,0,6.8,0.4,10.1,1.1
			c3.3,0.8,6.2,1.9,8.7,3.4l-4.5,10.9c-4.9-2.7-9.7-4-14.4-4c-2.9,0-5,0.4-6.4,1.3s-2,2-2,3.4c0,1.4,0.8,2.4,2.4,3.1
			c1.6,0.7,4.1,1.4,7.6,2.1c3.9,0.8,7.2,1.7,9.8,2.7c2.6,1,4.8,2.5,6.7,4.6c1.9,2.1,2.8,4.9,2.8,8.5c0,3.1-0.9,5.9-2.6,8.4
			c-1.7,2.5-4.3,4.5-7.8,6c-3.5,1.5-7.6,2.3-12.6,2.3C361.4,248.8,357.3,248.3,353.4,247.3z"/>
		<path class="st1" d="M444.5,196v51.8h-14.7v-20.2h-20v20.2h-14.7V196h14.7v19.5h20V196H444.5z"/>
		<path class="st1" d="M454.9,196h14.7v51.8h-14.7V196z"/>
		<path class="st1" d="M515.9,198.3c3.5,1.6,6.1,3.8,8,6.7c1.9,2.9,2.8,6.3,2.8,10.2c0,3.9-0.9,7.3-2.8,10.1c-1.9,2.9-4.5,5.1-8,6.6
			c-3.5,1.6-7.5,2.3-12.2,2.3h-9v13.5H480V196h23.7C508.4,196,512.4,196.8,515.9,198.3z M509.6,220.8c1.5-1.3,2.3-3.2,2.3-5.6
			c0-2.4-0.8-4.3-2.3-5.6c-1.5-1.3-3.8-2-6.8-2h-8.1v15.2h8.1C505.8,222.7,508.1,222.1,509.6,220.8z"/>
	</g>
	<g class="st0">
		<path class="st1" d="M634.7,196l-16.9,51.8h-12.9l-11.4-35.1l-11.8,35.1h-12.8l-17-51.8h12.4l11.7,36.4l12.2-36.4h11.1l11.8,36.7
			l12.1-36.7H634.7z"/>
		<path class="st1" d="M641.4,196h12v51.8h-12V196z"/>
		<path class="st1" d="M676.4,205.8h-16.6V196h45.1v9.8h-16.6v42h-12V205.8z"/>
		<path class="st1" d="M758.9,196v51.8h-12v-21.2h-23.5v21.2h-12V196h12v20.4h23.5V196H758.9z"/>
		<path class="st1" d="M797.9,242.5c-4.1-4.1-6.2-9.9-6.2-17.5v-29h12v28.6c0,9.3,3.8,13.9,11.5,13.9c3.7,0,6.6-1.1,8.6-3.4
			c2-2.2,3-5.8,3-10.5V196h11.8v29c0,7.6-2.1,13.4-6.2,17.5c-4.1,4.1-9.9,6.1-17.3,6.1C807.7,248.7,802,246.6,797.9,242.5z"/>
		<path class="st1" d="M855.6,247c-3.8-1.1-6.9-2.6-9.2-4.3l4.1-9c2.2,1.6,4.9,2.9,7.9,3.9c3.1,1,6.1,1.5,9.2,1.5
			c3.4,0,5.9-0.5,7.5-1.5c1.6-1,2.4-2.4,2.4-4c0-1.2-0.5-2.3-1.4-3.1c-1-0.8-2.2-1.5-3.7-2c-1.5-0.5-3.5-1-6.1-1.6
			c-3.9-0.9-7.2-1.9-9.7-2.8c-2.5-0.9-4.7-2.4-6.5-4.5c-1.8-2.1-2.7-4.8-2.7-8.3c0-3,0.8-5.7,2.4-8.2c1.6-2.4,4.1-4.4,7.4-5.8
			c3.3-1.4,7.3-2.1,12-2.1c3.3,0,6.5,0.4,9.7,1.2c3.2,0.8,5.9,1.9,8.3,3.4l-3.7,9.1c-4.8-2.7-9.6-4.1-14.4-4.1
			c-3.4,0-5.8,0.5-7.4,1.6c-1.6,1.1-2.4,2.5-2.4,4.3c0,1.8,0.9,3.1,2.8,4c1.9,0.9,4.7,1.7,8.5,2.6c3.9,0.9,7.2,1.9,9.7,2.8
			c2.5,0.9,4.7,2.4,6.5,4.4c1.8,2,2.7,4.8,2.7,8.2c0,3-0.8,5.7-2.5,8.1c-1.7,2.4-4.1,4.4-7.4,5.8c-3.3,1.4-7.3,2.1-12.1,2.1
			C863.4,248.7,859.4,248.1,855.6,247z"/>
	</g>
	<g class="st0">
		<path class="st1" d="M530.6,290.5c-1.3-0.4-2.3-0.9-3.1-1.5l1.4-3.1c0.8,0.6,1.6,1,2.7,1.3c1,0.3,2.1,0.5,3.1,0.5
			c1.2,0,2-0.2,2.5-0.5c0.6-0.3,0.8-0.8,0.8-1.4c0-0.4-0.2-0.8-0.5-1c-0.3-0.3-0.7-0.5-1.2-0.7c-0.5-0.2-1.2-0.3-2.1-0.5
			c-1.3-0.3-2.4-0.6-3.3-1c-0.8-0.3-1.6-0.8-2.2-1.5s-0.9-1.6-0.9-2.8c0-1,0.3-1.9,0.8-2.8s1.4-1.5,2.5-2s2.5-0.7,4.1-0.7
			c1.1,0,2.2,0.1,3.3,0.4c1.1,0.3,2,0.7,2.8,1.2l-1.2,3.1c-1.6-0.9-3.2-1.4-4.9-1.4c-1.1,0-2,0.2-2.5,0.5c-0.5,0.4-0.8,0.8-0.8,1.5
			c0,0.6,0.3,1,0.9,1.3c0.6,0.3,1.6,0.6,2.9,0.9c1.3,0.3,2.4,0.6,3.3,0.9c0.9,0.3,1.6,0.8,2.2,1.5c0.6,0.7,0.9,1.6,0.9,2.8
			c0,1-0.3,1.9-0.8,2.7s-1.4,1.5-2.5,2c-1.1,0.5-2.5,0.7-4.1,0.7C533.3,291.1,531.9,290.9,530.6,290.5z"/>
		<path class="st1" d="M546.8,289c-1.4-1.4-2.1-3.4-2.1-5.9v-9.8h4.1v9.7c0,3.1,1.3,4.7,3.9,4.7c1.3,0,2.2-0.4,2.9-1.1
			c0.7-0.8,1-1.9,1-3.6v-9.7h4v9.8c0,2.6-0.7,4.5-2.1,5.9c-1.4,1.4-3.3,2.1-5.8,2.1S548.2,290.4,546.8,289z"/>
		<path class="st1" d="M580.6,273.3v17.5h-3.3l-8.7-10.6v10.6h-4v-17.5h3.3l8.7,10.6v-10.6H580.6z"/>
		<path class="st1" d="M584.8,273.3h7.9c1.9,0,3.6,0.4,5,1.1c1.5,0.7,2.6,1.7,3.4,3.1s1.2,2.8,1.2,4.6s-0.4,3.3-1.2,4.6
			c-0.8,1.3-1.9,2.3-3.4,3.1c-1.5,0.7-3.1,1.1-5,1.1h-7.9V273.3z M592.5,287.5c1.8,0,3.1-0.5,4.2-1.5c1-1,1.6-2.3,1.6-4
			c0-1.7-0.5-3-1.6-4c-1-1-2.4-1.5-4.2-1.5h-3.7v10.8H592.5z"/>
		<path class="st1" d="M616.7,287h-8.1l-1.6,3.8h-4.1l7.8-17.5h4l7.8,17.5h-4.2L616.7,287z M615.4,284l-2.8-6.7l-2.8,6.7H615.4z"/>
		<path class="st1" d="M631.6,284.6v6.2h-4v-6.2l-6.8-11.2h4.3l4.7,7.8l4.7-7.8h4L631.6,284.6z"/>
		<path class="st1" d="M663.1,290.8l0-10.5l-5.1,8.7h-1.8l-5.1-8.4v10.3h-3.8v-17.5h3.3l6.5,10.9l6.5-10.9h3.3l0,17.5H663.1z"/>
		<path class="st1" d="M674.6,289.9c-1.5-0.8-2.6-1.9-3.4-3.2s-1.2-2.9-1.2-4.6s0.4-3.3,1.2-4.6s2-2.5,3.4-3.2
			c1.5-0.8,3.1-1.2,4.9-1.2s3.5,0.4,4.9,1.2s2.6,1.9,3.4,3.2s1.2,2.9,1.2,4.6s-0.4,3.3-1.2,4.6s-2,2.5-3.4,3.2s-3.1,1.2-4.9,1.2
			S676.1,290.7,674.6,289.9z M682.3,286.9c0.8-0.5,1.5-1.1,2-2c0.5-0.9,0.7-1.8,0.7-2.9c0-1.1-0.2-2-0.7-2.9c-0.5-0.8-1.1-1.5-2-2
			c-0.8-0.5-1.8-0.7-2.8-0.7s-2,0.2-2.8,0.7c-0.8,0.5-1.5,1.1-2,2c-0.5,0.9-0.7,1.8-0.7,2.9c0,1.1,0.2,2,0.7,2.9
			c0.5,0.8,1.1,1.5,2,2c0.8,0.5,1.8,0.7,2.8,0.7S681.5,287.4,682.3,286.9z"/>
		<path class="st1" d="M703.3,290.8l-3.4-4.9h-0.2h-3.5v4.9h-4v-17.5h7.6c1.6,0,2.9,0.3,4,0.8s2,1.2,2.6,2.2c0.6,1,0.9,2.1,0.9,3.4
			c0,1.3-0.3,2.4-0.9,3.4s-1.5,1.7-2.7,2.2l3.9,5.6H703.3z M702.3,277.4c-0.6-0.5-1.6-0.8-2.8-0.8h-3.3v6.1h3.3
			c1.2,0,2.1-0.3,2.8-0.8c0.6-0.5,0.9-1.3,0.9-2.2C703.2,278.7,702.9,277.9,702.3,277.4z"/>
		<path class="st1" d="M726.6,273.3v17.5h-3.3l-8.7-10.6v10.6h-4v-17.5h3.3l8.7,10.6v-10.6H726.6z"/>
		<path class="st1" d="M730.7,273.3h4v17.5h-4V273.3z"/>
		<path class="st1" d="M755,273.3v17.5h-3.3l-8.7-10.6v10.6h-4v-17.5h3.3l8.7,10.6v-10.6H755z"/>
		<path class="st1" d="M771,281.8h3.7v7.1c-1,0.7-2.1,1.3-3.3,1.6c-1.2,0.4-2.5,0.6-3.8,0.6c-1.8,0-3.5-0.4-4.9-1.2
			c-1.5-0.8-2.6-1.9-3.4-3.2s-1.2-2.9-1.2-4.7s0.4-3.3,1.2-4.7s2-2.5,3.4-3.2c1.5-0.8,3.1-1.2,5-1.2c1.5,0,2.9,0.3,4.2,0.8
			c1.2,0.5,2.3,1.3,3.1,2.2l-2.6,2.4c-1.2-1.3-2.8-2-4.5-2c-1.1,0-2.1,0.2-3,0.7c-0.9,0.5-1.5,1.1-2,2c-0.5,0.8-0.7,1.8-0.7,2.9
			c0,1.1,0.2,2,0.7,2.9c0.5,0.8,1.2,1.5,2,2c0.9,0.5,1.8,0.7,2.9,0.7c1.2,0,2.2-0.2,3.2-0.8V281.8z"/>
		<path class="st1" d="M780.2,290.5c-1.3-0.4-2.3-0.9-3.1-1.5l1.4-3.1c0.8,0.6,1.6,1,2.7,1.3c1,0.3,2.1,0.5,3.1,0.5
			c1.2,0,2-0.2,2.5-0.5c0.6-0.3,0.8-0.8,0.8-1.4c0-0.4-0.2-0.8-0.5-1c-0.3-0.3-0.7-0.5-1.2-0.7c-0.5-0.2-1.2-0.3-2.1-0.5
			c-1.3-0.3-2.4-0.6-3.3-1c-0.8-0.3-1.6-0.8-2.2-1.5s-0.9-1.6-0.9-2.8c0-1,0.3-1.9,0.8-2.8s1.4-1.5,2.5-2s2.5-0.7,4.1-0.7
			c1.1,0,2.2,0.1,3.3,0.4c1.1,0.3,2,0.7,2.8,1.2l-1.2,3.1c-1.6-0.9-3.2-1.4-4.9-1.4c-1.1,0-2,0.2-2.5,0.5c-0.5,0.4-0.8,0.8-0.8,1.5
			c0,0.6,0.3,1,0.9,1.3c0.6,0.3,1.6,0.6,2.9,0.9c1.3,0.3,2.4,0.6,3.3,0.9c0.9,0.3,1.6,0.8,2.2,1.5c0.6,0.7,0.9,1.6,0.9,2.8
			c0,1-0.3,1.9-0.8,2.7s-1.4,1.5-2.5,2c-1.1,0.5-2.5,0.7-4.1,0.7C782.8,291.1,781.5,290.9,780.2,290.5z"/>
		<path class="st1" d="M813,287h-8.1l-1.5,3.8h-4.2l7.8-17.5h4l7.8,17.5h-4.2L813,287z M811.7,284l-2.8-6.7l-2.8,6.7H811.7z"/>
		<path class="st1" d="M823.3,276.6h-5.6v-3.3H833v3.3h-5.6v14.2h-4V276.6z"/>
		<path class="st1" d="M855.1,283.3c0.5,0.7,0.7,1.5,0.7,2.4c0,1.1-0.3,2-0.9,2.8c-0.6,0.8-1.5,1.4-2.6,1.9
			c-1.1,0.4-2.4,0.7-3.9,0.7s-2.8-0.2-3.9-0.7s-2-1.1-2.6-1.9s-0.9-1.8-0.9-2.8c0-0.9,0.2-1.7,0.7-2.4c0.5-0.7,1.1-1.3,2-1.7
			c-0.7-0.4-1.2-0.9-1.5-1.5c-0.4-0.6-0.5-1.3-0.5-2.1c0-1,0.3-1.9,0.8-2.7s1.4-1.3,2.4-1.7s2.2-0.6,3.5-0.6c1.3,0,2.5,0.2,3.5,0.6
			c1,0.4,1.8,1,2.4,1.7c0.6,0.8,0.8,1.6,0.8,2.7c0,0.8-0.2,1.5-0.5,2.1c-0.3,0.6-0.9,1.1-1.5,1.5C854,282,854.7,282.6,855.1,283.3z
			 M850.8,287.4c0.6-0.5,0.9-1.1,0.9-1.8s-0.3-1.4-0.9-1.8c-0.6-0.4-1.4-0.7-2.4-0.7c-1,0-1.8,0.2-2.4,0.7c-0.6,0.5-0.9,1.1-0.9,1.8
			c0,0.8,0.3,1.4,0.9,1.9c0.6,0.4,1.4,0.7,2.4,0.7C849.4,288.1,850.2,287.9,850.8,287.4z M846.4,276.6c-0.5,0.4-0.7,0.9-0.7,1.6
			c0,0.7,0.2,1.2,0.7,1.6s1.1,0.6,2,0.6c0.8,0,1.5-0.2,2-0.6s0.8-0.9,0.8-1.6c0-0.7-0.2-1.2-0.8-1.6s-1.2-0.6-2-0.6
			C847.6,276,846.9,276.2,846.4,276.6z"/>
		<path class="st1" d="M858.2,281.3c-0.5-0.5-0.7-1.1-0.7-1.8c0-0.7,0.2-1.3,0.7-1.7c0.5-0.4,1-0.7,1.7-0.7c0.7,0,1.3,0.2,1.7,0.7
			c0.5,0.4,0.7,1,0.7,1.7c0,0.7-0.2,1.3-0.7,1.8s-1,0.7-1.7,0.7C859.3,282,858.7,281.8,858.2,281.3z M858.2,290.3
			c-0.5-0.5-0.7-1-0.7-1.8c0-0.7,0.2-1.3,0.7-1.7s1-0.7,1.7-0.7c0.7,0,1.3,0.2,1.7,0.7s0.7,1,0.7,1.7c0,0.7-0.2,1.3-0.7,1.8
			s-1,0.7-1.7,0.7C859.3,291,858.7,290.8,858.2,290.3z"/>
		<path class="st1" d="M875.9,282.1c0.8,0.9,1.2,2,1.2,3.3c0,1-0.3,2-0.8,2.8s-1.3,1.5-2.4,2.1c-1.1,0.5-2.4,0.8-4,0.8
			c-1.2,0-2.4-0.2-3.6-0.5c-1.2-0.3-2.2-0.8-3-1.4l1.6-3.1c0.7,0.5,1.4,0.9,2.3,1.2c0.9,0.3,1.8,0.4,2.7,0.4c1,0,1.8-0.2,2.4-0.6
			c0.6-0.4,0.9-0.9,0.9-1.7c0-1.4-1.1-2.2-3.3-2.2h-1.8v-2.7l3.6-4.1h-7.5v-3.2h12.2v2.6l-3.9,4.5
			C873.9,280.7,875.1,281.2,875.9,282.1z"/>
		<path class="st1" d="M882.6,290c-1.1-0.7-2-1.8-2.7-3.1s-1-3-1-4.9c0-1.9,0.3-3.5,1-4.9s1.5-2.4,2.7-3.1c1.1-0.7,2.4-1.1,3.9-1.1
			c1.5,0,2.7,0.4,3.9,1.1c1.1,0.7,2,1.8,2.7,3.1s1,3,1,4.9c0,1.9-0.3,3.5-1,4.9s-1.5,2.4-2.7,3.1c-1.1,0.7-2.4,1.1-3.9,1.1
			C885,291.1,883.8,290.7,882.6,290z M889,286.3c0.6-0.9,0.9-2.3,0.9-4.2c0-1.9-0.3-3.3-0.9-4.2c-0.6-0.9-1.4-1.4-2.5-1.4
			c-1,0-1.9,0.5-2.5,1.4c-0.6,0.9-0.9,2.3-0.9,4.2c0,1.9,0.3,3.3,0.9,4.2c0.6,0.9,1.4,1.4,2.5,1.4
			C887.6,287.7,888.4,287.2,889,286.3z"/>
	</g>
	<rect id="Rectangle_109" x="139" y="276.8" class="st2" width="343" height="10"/>
</g>
</svg>
