<svg id="Layer_1" data-name="Layer 1" xmlns="http://www.w3.org/2000/svg" viewBox="0 0 251.65 60.05"><defs><style>.cls-1{fill:#434c58;}</style></defs><path class="cls-1" d="M842.08,571.1a5.71,5.71,0,0,1-2.34.42,4.15,4.15,0,0,1-4.39-4.49,4.41,4.41,0,0,1,4.63-4.65,4.74,4.74,0,0,1,2.11.39l-.28.93a4.16,4.16,0,0,0-1.79-.36,3.3,3.3,0,0,0-3.46,3.65,3.23,3.23,0,0,0,3.41,3.57,4.64,4.64,0,0,0,1.87-.37Z" transform="translate(-761.38 -525.95)"/><path class="cls-1" d="M852.79,566.86c0,3-1.86,4.67-4.12,4.67s-4-1.81-4-4.5,1.75-4.65,4.12-4.65S852.79,564.23,852.79,566.86Zm-6.88.15c0,1.89,1,3.59,2.83,3.59s2.84-1.67,2.84-3.69c0-1.76-.92-3.6-2.83-3.6S845.91,565.06,845.91,567Z" transform="translate(-761.38 -525.95)"/><path class="cls-1" d="M863.72,567.49c-.06-1.23-.14-2.72-.13-3.83h0c-.3,1-.67,2.15-1.12,3.37l-1.56,4.3H860l-1.43-4.22c-.43-1.25-.78-2.39-1-3.45h0c0,1.11-.09,2.6-.17,3.92l-.24,3.81H856l.62-8.87h1.46l1.51,4.29c.37,1.09.68,2.06.9,3h0c.22-.9.54-1.87.93-3l1.58-4.29h1.46l.55,8.87h-1.12Z" transform="translate(-761.38 -525.95)"/><path class="cls-1" d="M876.27,567.49c-.06-1.23-.14-2.72-.13-3.83h0c-.3,1-.67,2.15-1.12,3.37l-1.56,4.3h-.87l-1.43-4.22c-.42-1.25-.78-2.39-1-3.45h0c0,1.11-.1,2.6-.18,3.92l-.23,3.81h-1.09l.61-8.87h1.46l1.52,4.29c.36,1.09.67,2.06.89,3h0a30.87,30.87,0,0,1,.94-3l1.57-4.29h1.46l.56,8.87H876.5Z" transform="translate(-761.38 -525.95)"/><path class="cls-1" d="M882.5,562.52v5.25c0,2,.88,2.83,2.06,2.83s2.16-.87,2.16-2.83v-5.25h1.16v5.17c0,2.72-1.43,3.84-3.35,3.84s-3.19-1-3.19-3.79v-5.22Z" transform="translate(-761.38 -525.95)"/><path class="cls-1" d="M891.84,571.39v-8.87h1.25l2.84,4.49a24.63,24.63,0,0,1,1.6,2.88l0,0c-.1-1.18-.13-2.26-.13-3.64v-3.71h1.08v8.87h-1.16l-2.81-4.5a28.74,28.74,0,0,1-1.66-3h0c.07,1.12.09,2.19.09,3.66v3.79Z" transform="translate(-761.38 -525.95)"/><path class="cls-1" d="M903.62,562.52v8.87h-1.14v-8.87Z" transform="translate(-761.38 -525.95)"/><path class="cls-1" d="M909.28,563.49h-2.7v-1h6.56v1h-2.7v7.9h-1.16Z" transform="translate(-761.38 -525.95)"/><path class="cls-1" d="M918.45,571.39v-3.77l-2.8-5.1H917L918.2,565c.34.67.6,1.21.88,1.83h0c.25-.58.55-1.16.89-1.83l1.28-2.45h1.3l-3,5.09v3.78Z" transform="translate(-761.38 -525.95)"/><path class="cls-1" d="M936.53,571.1a5.73,5.73,0,0,1-2.35.42A4.15,4.15,0,0,1,929.8,567a4.41,4.41,0,0,1,4.63-4.65,4.74,4.74,0,0,1,2.11.39l-.28.93a4.16,4.16,0,0,0-1.79-.36A3.3,3.3,0,0,0,931,567a3.23,3.23,0,0,0,3.41,3.57,4.64,4.64,0,0,0,1.87-.37Z" transform="translate(-761.38 -525.95)"/><path class="cls-1" d="M941.08,562.52v3.71h4.29v-3.71h1.16v8.87h-1.16v-4.16h-4.29v4.16h-1.14v-8.87Z" transform="translate(-761.38 -525.95)"/><path class="cls-1" d="M951.63,562.52v5.25c0,2,.89,2.83,2.07,2.83s2.16-.87,2.16-2.83v-5.25H957v5.17c0,2.72-1.43,3.84-3.35,3.84s-3.18-1-3.18-3.79v-5.22Z" transform="translate(-761.38 -525.95)"/><path class="cls-1" d="M961,562.64a11.66,11.66,0,0,1,2.19-.18,3.66,3.66,0,0,1,2.57.72,2.22,2.22,0,0,1,.69,1.68,2.31,2.31,0,0,1-1.67,2.26v0a2.21,2.21,0,0,1,1.31,1.79,14.68,14.68,0,0,0,.68,2.44h-1.18a11,11,0,0,1-.6-2.12c-.26-1.22-.73-1.69-1.77-1.73h-1.08v3.85H961Zm1.14,4h1.17c1.22,0,2-.67,2-1.69s-.83-1.64-2-1.65a4.92,4.92,0,0,0-1.13.1Z" transform="translate(-761.38 -525.95)"/><path class="cls-1" d="M976.26,571.1a5.68,5.68,0,0,1-2.34.42,4.14,4.14,0,0,1-4.38-4.49,4.41,4.41,0,0,1,4.63-4.65,4.78,4.78,0,0,1,2.11.39l-.28.93a4.16,4.16,0,0,0-1.79-.36,3.29,3.29,0,0,0-3.46,3.65,3.23,3.23,0,0,0,3.41,3.57,4.64,4.64,0,0,0,1.87-.37Z" transform="translate(-761.38 -525.95)"/><path class="cls-1" d="M980.82,562.52v3.71h4.29v-3.71h1.15v8.87h-1.15v-4.16h-4.29v4.16h-1.15v-8.87Z" transform="translate(-761.38 -525.95)"/><path class="cls-1" d="M846.94,554.19a9,9,0,0,1-4.54,1.3,6.3,6.3,0,0,1-4.75-1.86,8,8,0,0,1,0-10.09,6.53,6.53,0,0,1,4.8-1.81,10.35,10.35,0,0,1,4.46,1.07v3.52h-1.53v-2.55a7.16,7.16,0,0,0-3.06-.64,4.53,4.53,0,0,0-3.6,1.42,5.83,5.83,0,0,0-1.24,4,6,6,0,0,0,1.33,4.09,4.68,4.68,0,0,0,3.69,1.49,9.07,9.07,0,0,0,4.41-1.33Z" transform="translate(-761.38 -525.95)"/><path class="cls-1" d="M842.4,555.76a6.6,6.6,0,0,1-4.94-2,8.2,8.2,0,0,1,0-10.46,6.81,6.81,0,0,1,5-1.88,10.66,10.66,0,0,1,4.57,1.09l.16.07v4h-2.07v-2.65a6.91,6.91,0,0,0-2.79-.54,4.32,4.32,0,0,0-3.4,1.32,5.6,5.6,0,0,0-1.17,3.79,5.67,5.67,0,0,0,1.26,3.91,4.4,4.4,0,0,0,3.49,1.4,8.86,8.86,0,0,0,4.28-1.29l.4-.22v2l-.14.08A9.23,9.23,0,0,1,842.4,555.76Zm.08-13.76a6.27,6.27,0,0,0-4.61,1.73,7.68,7.68,0,0,0,0,9.71,6.06,6.06,0,0,0,4.55,1.78,8.65,8.65,0,0,0,4.27-1.19v-.82a9,9,0,0,1-4.14,1.14,5,5,0,0,1-3.89-1.57,6.25,6.25,0,0,1-1.39-4.27,6.13,6.13,0,0,1,1.3-4.14,4.78,4.78,0,0,1,3.8-1.5,7.37,7.37,0,0,1,3.17.66l.16.07v2.45h1V543A10.07,10.07,0,0,0,842.48,542Z" transform="translate(-761.38 -525.95)"/><path class="cls-1" d="M852.59,548.59a7,7,0,0,1,1.74-5,6,6,0,0,1,4.63-1.89,5.74,5.74,0,0,1,4.47,1.81,7,7,0,0,1,1.65,4.87,7.4,7.4,0,0,1-1.74,5.17,5.86,5.86,0,0,1-4.56,1.91,5.76,5.76,0,0,1-4.49-1.87A7.22,7.22,0,0,1,852.59,548.59Zm1.66-.11a6.38,6.38,0,0,0,1.22,4.08,4.48,4.48,0,0,0,6.74,0,6.37,6.37,0,0,0,1.21-4.08,6.1,6.1,0,0,0-1.16-3.88,4.07,4.07,0,0,0-3.4-1.47,4.23,4.23,0,0,0-3.41,1.42A5.88,5.88,0,0,0,854.25,548.48Z" transform="translate(-761.38 -525.95)"/><path class="cls-1" d="M858.78,555.76a6.06,6.06,0,0,1-4.69-2,7.52,7.52,0,0,1-1.76-5.21,7.31,7.31,0,0,1,1.8-5.15,6.26,6.26,0,0,1,4.83-2,6,6,0,0,1,4.67,1.89,7.24,7.24,0,0,1,1.71,5,7.68,7.68,0,0,1-1.8,5.35A6.16,6.16,0,0,1,858.78,555.76ZM859,542a5.78,5.78,0,0,0-4.44,1.8,6.84,6.84,0,0,0-1.66,4.79,7,7,0,0,0,1.63,4.85,5.53,5.53,0,0,0,4.29,1.78,5.64,5.64,0,0,0,4.37-1.82,7.21,7.21,0,0,0,1.66-5,6.76,6.76,0,0,0-1.57-4.69A5.53,5.53,0,0,0,859,542Zm-.12,12.35a4.36,4.36,0,0,1-3.58-1.62,6.64,6.64,0,0,1-1.28-4.25,6.2,6.2,0,0,1,1.26-4.1,4.51,4.51,0,0,1,3.62-1.51,4.34,4.34,0,0,1,3.61,1.56,6.36,6.36,0,0,1,1.22,4.05,6.72,6.72,0,0,1-1.27,4.25A4.33,4.33,0,0,1,858.84,554.35Zm0-11a3.93,3.93,0,0,0-3.21,1.32,5.7,5.7,0,0,0-1.13,3.76,6.11,6.11,0,0,0,1.16,3.91,4.21,4.21,0,0,0,6.32,0,6.11,6.11,0,0,0,1.15-3.91,5.88,5.88,0,0,0-1.1-3.72A3.8,3.8,0,0,0,858.86,543.4Z" transform="translate(-761.38 -525.95)"/><path class="cls-1" d="M873.28,549.38v4.71h1.53v1.4h-4.59v-1.4h1.53v-11h-1.53v-1.4h6.12a5.66,5.66,0,0,1,3.6.92,3.36,3.36,0,0,1,1.11,2.75c0,2.11-1.22,3.36-3.64,3.77v.08a3.6,3.6,0,0,1,.84.64,7,7,0,0,1,1,1.37l1.63,2.83h1.61v1.4h-2.7c-.22-.41-.43-.79-.63-1.13s-.38-.69-.57-1l-.86-1.53a13.76,13.76,0,0,0-.81-1.32,3.31,3.31,0,0,0-.67-.74,1.55,1.55,0,0,0-.69-.32,5.17,5.17,0,0,0-.84-.06Zm2.8-1.41a4.34,4.34,0,0,0,2.46-.58,2.54,2.54,0,0,0,.1-3.7,4.14,4.14,0,0,0-2.43-.56h-2.93V548Z" transform="translate(-761.38 -525.95)"/><path class="cls-1" d="M882.72,555.76h-3.13l-.08-.14c-.22-.41-.42-.79-.62-1.13s-.38-.69-.57-1l-.87-1.53a13,13,0,0,0-.78-1.3,3.55,3.55,0,0,0-.62-.68,1.45,1.45,0,0,0-.58-.27,4.54,4.54,0,0,0-.79-.06h-1.13v4.18h1.52v1.94H870v-1.94h1.52V543.4H870v-1.93h6.38a5.89,5.89,0,0,1,3.77,1,3.61,3.61,0,0,1,1.2,2.95c0,2.08-1.11,3.39-3.3,3.92a3.7,3.7,0,0,1,.42.38,7,7,0,0,1,1,1.43l1.56,2.69h1.72Zm-2.81-.54h2.27v-.87h-1.49l-1.71-3a7.28,7.28,0,0,0-.92-1.32,3.21,3.21,0,0,0-.78-.59l-.14-.07V549l.22,0c2.3-.39,3.42-1.54,3.42-3.51a3.07,3.07,0,0,0-1-2.54,5.42,5.42,0,0,0-3.43-.86h-5.85v.87H872v11.48h-1.53v.87h4v-.87H873v-5.24h1.67a4.8,4.8,0,0,1,.89.07,1.77,1.77,0,0,1,.8.37,3.55,3.55,0,0,1,.73.79,15.13,15.13,0,0,1,.82,1.35l.86,1.53.58,1C879.53,554.53,879.71,554.87,879.91,555.22Zm-3.83-7H873v-5.37h3.2a4.33,4.33,0,0,1,2.59.61,2.79,2.79,0,0,1-.11,4.13A4.6,4.6,0,0,1,876.08,548.24Zm-2.53-.53h2.53a4.09,4.09,0,0,0,2.31-.54,1.88,1.88,0,0,0,.74-1.67,1.84,1.84,0,0,0-.65-1.59,3.86,3.86,0,0,0-2.27-.51h-2.66Z" transform="translate(-761.38 -525.95)"/><path class="cls-1" d="M897.66,543.13h-1.53v-1.4h4.58v1.4h-1.52v12.36h-1.53l-7.54-11H890v9.58h1.53v1.4H887v-1.4h1.53v-11H887v-1.4h3l7.54,11h.11Z" transform="translate(-761.38 -525.95)"/><path class="cls-1" d="M899.45,555.76h-1.93l-.08-.12-7.16-10.42v8.6h1.53v1.94h-5.12v-1.94h1.53V543.4h-1.53v-1.93h3.46l.08.11,7.16,10.4V543.4h-1.53v-1.93H901v1.93h-1.53Zm-1.65-.54h1.12V542.87h1.53V542h-4.06v.87h1.53V553h-.5l-.08-.11L889.87,542h-2.65v.87h1.53v11.48h-1.53v.87h4.06v-.87h-1.53V544.24h.51l.08.12Z" transform="translate(-761.38 -525.95)"/><path class="cls-1" d="M905.22,543.13v-1.4h10.19v4.08h-1.53v-2.68h-5.6v4.46h2.55v-1.53h1.52v4.59h-1.52V549h-2.55v5.1h5.6v-2.68h1.53v4.08H905.22v-1.4h1.53v-11Z" transform="translate(-761.38 -525.95)"/><path class="cls-1" d="M915.68,555.76H905v-1.94h1.53V543.4H905v-1.93h10.73v4.61h-2.06V543.4h-5.07v3.93h2V545.8h2.06v5.12h-2.06v-1.66h-2v4.56h5.07v-2.67h2.06Zm-10.19-.54h9.65v-3.54h-1v2.67H908v-5.62h3.08v1.65h1v-4h-1v1.53H908v-5h6.14v2.67h1V542h-9.65v.87H907v11.48h-1.53Z" transform="translate(-761.38 -525.95)"/><path class="cls-1" d="M923.49,549.38v4.71H925v1.4h-4.58v-1.4H922v-11h-1.53v-1.4h6.11a5.67,5.67,0,0,1,3.61.92,3.39,3.39,0,0,1,1.1,2.75c0,2.11-1.21,3.36-3.64,3.77v.08a3.23,3.23,0,0,1,.84.64,7,7,0,0,1,1,1.37l1.63,2.83h1.61v1.4H930c-.23-.41-.43-.79-.63-1.13s-.39-.69-.57-1l-.87-1.53a12.15,12.15,0,0,0-.8-1.32,3.11,3.11,0,0,0-.68-.74,1.56,1.56,0,0,0-.68-.32,5.17,5.17,0,0,0-.84-.06Zm2.8-1.41a4.34,4.34,0,0,0,2.46-.58,2.15,2.15,0,0,0,.85-1.89,2.12,2.12,0,0,0-.75-1.81,4.16,4.16,0,0,0-2.44-.56h-2.92V548Z" transform="translate(-761.38 -525.95)"/><path class="cls-1" d="M932.92,555.76H929.8l-.08-.14-.62-1.13c-.2-.35-.39-.68-.57-1l-.87-1.53a12.12,12.12,0,0,0-.79-1.3,3,3,0,0,0-.62-.68,1.36,1.36,0,0,0-.57-.27,4.54,4.54,0,0,0-.79-.06h-1.14v4.18h1.53v1.94h-5.12v-1.94h1.53V543.4h-1.53v-1.93h6.38a5.94,5.94,0,0,1,3.78,1,3.64,3.64,0,0,1,1.2,2.95c0,2.08-1.11,3.39-3.3,3.92a4.81,4.81,0,0,1,.42.38,7,7,0,0,1,1,1.43l1.55,2.69h1.72Zm-2.81-.54h2.28v-.87H930.9l-1.71-3a6.76,6.76,0,0,0-.93-1.32,3.37,3.37,0,0,0-.77-.59l-.14-.07V549l.22,0c2.3-.39,3.42-1.54,3.42-3.51a3.07,3.07,0,0,0-1-2.54,5.45,5.45,0,0,0-3.44-.86H920.7v.87h1.52v11.48H920.7v.87h4v-.87h-1.53v-5.24h1.67a4.61,4.61,0,0,1,.88.07,1.75,1.75,0,0,1,.81.37,3.8,3.8,0,0,1,.73.79c.24.34.51.8.82,1.35l.86,1.53c.19.32.38.66.57,1S929.92,554.87,930.11,555.22Zm-3.82-7h-3.07v-5.37h3.19a4.35,4.35,0,0,1,2.6.61,2.79,2.79,0,0,1-.11,4.13A4.62,4.62,0,0,1,926.29,548.24Zm-2.54-.53h2.54a4.11,4.11,0,0,0,2.31-.54,1.88,1.88,0,0,0,.73-1.67,1.84,1.84,0,0,0-.64-1.59,3.9,3.9,0,0,0-2.28-.51h-2.66Z" transform="translate(-761.38 -525.95)"/><path class="cls-1" d="M941.19,555.49a10.44,10.44,0,0,1-4-.84v-3.24h1.53v2.3a9,9,0,0,0,2.75.38,4.4,4.4,0,0,0,2.49-.61,1.83,1.83,0,0,0,.88-1.53,1.8,1.8,0,0,0-.2-.87,1.67,1.67,0,0,0-.59-.63,5.36,5.36,0,0,0-1-.54c-.42-.17-.93-.35-1.53-.53s-1-.36-1.54-.57a7,7,0,0,1-1.42-.73,3.41,3.41,0,0,1-1.05-1.09,3,3,0,0,1-.39-1.56,3.18,3.18,0,0,1,1.36-2.68,5.92,5.92,0,0,1,3.63-1,8.27,8.27,0,0,1,3.8.87v3.21H944.3v-2.27a6.47,6.47,0,0,0-2.47-.41,3.75,3.75,0,0,0-2.34.63,1.85,1.85,0,0,0-.8,1.49,1.78,1.78,0,0,0,.22.93,2,2,0,0,0,.65.66,5.32,5.32,0,0,0,1.07.54c.42.16.92.33,1.5.52s1,.35,1.54.56a6.82,6.82,0,0,1,1.4.72,3.26,3.26,0,0,1,1,1.05,2.87,2.87,0,0,1,.38,1.51,3.2,3.2,0,0,1-1.4,2.77A6.67,6.67,0,0,1,941.19,555.49Z" transform="translate(-761.38 -525.95)"/><path class="cls-1" d="M941.19,555.76a10.56,10.56,0,0,1-4.13-.87l-.16-.06v-3.68H939v2.36a8.8,8.8,0,0,0,2.48.31,4.15,4.15,0,0,0,2.34-.56,1.56,1.56,0,0,0,.76-1.31,1.53,1.53,0,0,0-.16-.74,1.62,1.62,0,0,0-.51-.54,5.14,5.14,0,0,0-1-.51c-.4-.16-.91-.34-1.51-.53s-1-.36-1.56-.57a7.55,7.55,0,0,1-1.47-.76,3.57,3.57,0,0,1-1.12-1.17,3.19,3.19,0,0,1-.44-1.7,3.44,3.44,0,0,1,1.47-2.89,6.22,6.22,0,0,1,3.79-1.07,8.68,8.68,0,0,1,3.92.89l.14.08v3.64H944v-2.36a6.64,6.64,0,0,0-2.2-.32,3.47,3.47,0,0,0-2.17.57,1.58,1.58,0,0,0-.7,1.28,1.54,1.54,0,0,0,.18.79,1.74,1.74,0,0,0,.57.58,5.57,5.57,0,0,0,1,.51c.43.16.92.33,1.49.51s1,.37,1.56.57a7.61,7.61,0,0,1,1.45.75,3.78,3.78,0,0,1,1.09,1.13,3.11,3.11,0,0,1,.42,1.65,3.45,3.45,0,0,1-1.52,3A6.93,6.93,0,0,1,941.19,555.76Zm-3.76-1.29a10.08,10.08,0,0,0,3.76.75,6.43,6.43,0,0,0,3.72-.93,2.92,2.92,0,0,0,1.28-2.55,2.56,2.56,0,0,0-.34-1.37,2.94,2.94,0,0,0-.93-1,6.35,6.35,0,0,0-1.35-.7c-.51-.21-1-.39-1.52-.56s-1.09-.36-1.51-.53a4.76,4.76,0,0,1-1.13-.56,2.33,2.33,0,0,1-.73-.74,2.17,2.17,0,0,1,.65-2.77,4,4,0,0,1,2.5-.68,6.6,6.6,0,0,1,2.57.43l.16.06v2.18h1v-2.77A8.08,8.08,0,0,0,942,542a5.65,5.65,0,0,0-3.47,1,2.89,2.89,0,0,0-1.26,2.46,2.63,2.63,0,0,0,.36,1.42,3.16,3.16,0,0,0,1,1,7.5,7.5,0,0,0,1.38.72c.51.2,1,.38,1.53.55s1.12.37,1.54.54a5.88,5.88,0,0,1,1.1.57,1.92,1.92,0,0,1,.9,1.72,2.07,2.07,0,0,1-1,1.75,4.64,4.64,0,0,1-2.64.65,9.22,9.22,0,0,1-2.83-.39l-.18-.06v-2.22h-1Z" transform="translate(-761.38 -525.95)"/><path class="cls-1" d="M953.9,554.09h1.53v-11h-3.06v2.68h-1.53v-4.08h10.7v4.08H960v-2.68h-3v11h1.53v1.4H953.9Z" transform="translate(-761.38 -525.95)"/><path class="cls-1" d="M958.75,555.76h-5.12v-1.94h1.53V543.4h-2.52v2.68h-2.06v-4.61h11.23v4.61h-2.06V543.4h-2.53v10.42h1.53Zm-4.58-.54h4.05v-.87h-1.53V542.87h3.59v2.67h1V542H951.11v3.54h1v-2.67h3.59v11.48h-1.52Z" transform="translate(-761.38 -525.95)"/><path class="cls-1" d="M966.69,548.59a7,7,0,0,1,1.73-5,6,6,0,0,1,4.64-1.89,5.77,5.77,0,0,1,4.47,1.81,7,7,0,0,1,1.64,4.87,7.44,7.44,0,0,1-1.73,5.17,5.89,5.89,0,0,1-4.56,1.91,5.77,5.77,0,0,1-4.5-1.87A7.22,7.22,0,0,1,966.69,548.59Zm1.65-.11a6.32,6.32,0,0,0,1.23,4.08,4.47,4.47,0,0,0,6.73,0,6.37,6.37,0,0,0,1.21-4.08,6,6,0,0,0-1.16-3.88,4.06,4.06,0,0,0-3.4-1.47,4.24,4.24,0,0,0-3.41,1.42A5.88,5.88,0,0,0,968.34,548.48Z" transform="translate(-761.38 -525.95)"/><path class="cls-1" d="M972.88,555.76a6.07,6.07,0,0,1-4.7-2,7.52,7.52,0,0,1-1.76-5.21,7.36,7.36,0,0,1,1.8-5.15,6.28,6.28,0,0,1,4.83-2,6,6,0,0,1,4.67,1.89,7.24,7.24,0,0,1,1.72,5,7.73,7.73,0,0,1-1.8,5.35A6.19,6.19,0,0,1,972.88,555.76Zm.17-13.76a5.74,5.74,0,0,0-4.43,1.8,6.8,6.8,0,0,0-1.67,4.79,7,7,0,0,0,1.63,4.85,5.55,5.55,0,0,0,4.3,1.78,5.62,5.62,0,0,0,4.36-1.82,7.21,7.21,0,0,0,1.66-5,6.76,6.76,0,0,0-1.57-4.69A5.53,5.53,0,0,0,973.05,542Zm-.12,12.35a4.32,4.32,0,0,1-3.57-1.62,6.62,6.62,0,0,1-1.28-4.25,6.13,6.13,0,0,1,1.26-4.1,4.48,4.48,0,0,1,3.61-1.51,4.34,4.34,0,0,1,3.61,1.56,6.38,6.38,0,0,1,1.22,4.05,6.72,6.72,0,0,1-1.27,4.25A4.32,4.32,0,0,1,972.93,554.35Zm0-11a4,4,0,0,0-3.2,1.32,5.63,5.63,0,0,0-1.14,3.76,6.05,6.05,0,0,0,1.17,3.91,4.21,4.21,0,0,0,6.32,0,6.17,6.17,0,0,0,1.15-3.91,5.88,5.88,0,0,0-1.1-3.72A3.83,3.83,0,0,0,973,543.4Z" transform="translate(-761.38 -525.95)"/><path class="cls-1" d="M995,543.13h-1.52v-1.4h4.58v1.4h-1.53v12.36H995l-7.54-11h-.1v9.58h1.53v1.4h-4.59v-1.4h1.53v-11h-1.53v-1.4h3.06l7.54,11h.1Z" transform="translate(-761.38 -525.95)"/><path class="cls-1" d="M996.81,555.76h-1.94l-.08-.12-7.15-10.42v8.6h1.53v1.94h-5.12v-1.94h1.53V543.4h-1.53v-1.93h3.46L994.75,552V543.4h-1.53v-1.93h5.12v1.93h-1.53Zm-1.66-.54h1.12V542.87h1.53V542h-4v.87h1.53V553h-.51l-7.54-11h-2.65v.87h1.53v11.48h-1.53v.87h4v-.87h-1.52V544.24h.5l.08.12Z" transform="translate(-761.38 -525.95)"/><path class="cls-1" d="M1002.58,543.13v-1.4h10.19v4.08h-1.53v-2.68h-5.6v4.46h2.54v-1.53h1.53v4.59h-1.53V549h-2.54v5.1h5.6v-2.68h1.53v4.08h-10.19v-1.4h1.53v-11Z" transform="translate(-761.38 -525.95)"/><path class="cls-1" d="M1013,555.76h-10.72v-1.94h1.53V543.4h-1.53v-1.93H1013v4.61H1011V543.4h-5.07v3.93h2V545.8H1010v5.12h-2.06v-1.66h-2v4.56H1011v-2.67H1013Zm-10.18-.54h9.65v-3.54h-1v2.67h-6.14v-5.62h3.08v1.65h1v-4h-1v1.53h-3.08v-5h6.14v2.67h1V542h-9.65v.87h1.52v11.48h-1.52Z" transform="translate(-761.38 -525.95)"/><path class="cls-1" d="M826.43,558.42l-4.31-7.58a11.26,11.26,0,0,0-1.2-1,20.41,20.41,0,0,0-.17-4.1,44.36,44.36,0,0,1,.11-14.17,46.89,46.89,0,0,1-14.43,0,20.54,20.54,0,0,0-4.19-.19,9.51,9.51,0,0,0-1-1.15L793.4,526l-7.58,4.31a11.26,11.26,0,0,0-1,1.2,20.44,20.44,0,0,0-4.1.17,44.36,44.36,0,0,1-14.17-.11,46.89,46.89,0,0,1,0,14.43,20.13,20.13,0,0,0-.16,4.49,8.3,8.3,0,0,0-.73.6l-4.31,7.89,4.31,7.58a10.45,10.45,0,0,0,1.21,1,19.73,19.73,0,0,0,.17,4.1,44.39,44.39,0,0,1-.12,14.17,46.89,46.89,0,0,1,14.43,0c2.26.3,5,.51,7.32-.48l-.16-.15.08,0a8.08,8.08,0,0,1-1.74-2.6,7.84,7.84,0,0,1-.49-2h0a8.31,8.31,0,0,1,.55-3.95l1-11.49-11.55,1-.57.19c-.16,0-.31.11-.47.15l-.55.12a8.67,8.67,0,0,1-1.28.13h-.24a8.06,8.06,0,0,1-2.9-.58,8.24,8.24,0,0,1-2.6-1.74l-2.84-5.65,2.84-5.64a8.08,8.08,0,0,1,2.6-1.74,7.76,7.76,0,0,1,1.42-.43,8.18,8.18,0,0,1,3.92.55l11.49,1-1-11.56c-.08-.19-.13-.38-.19-.57s-.11-.31-.15-.47l-.12-.54a8.67,8.67,0,0,1-.13-1.28c0-.08,0-.16,0-.24a8.06,8.06,0,0,1,.58-2.9,8.24,8.24,0,0,1,1.74-2.6l5.65-2.84,5.64,2.84a7.57,7.57,0,0,1,2.22,4.43h0a8.35,8.35,0,0,1-.55,4l-1,11.49,11.55-1c.2-.08.39-.14.58-.2l.46-.14a5.41,5.41,0,0,1,.55-.12,8.67,8.67,0,0,1,1.28-.13h.24a7.85,7.85,0,0,1,2.9.58,8.08,8.08,0,0,1,2.6,1.74l2.84,5.64L820,564.22a8.24,8.24,0,0,1-2.6,1.74,7.76,7.76,0,0,1-1.42.43,8.43,8.43,0,0,1-3.92-.55l-11.49-1,1,11.55s0,0,0,.06h0a7.76,7.76,0,0,1,.43,1.42.43.43,0,0,0,0,0,8.72,8.72,0,0,1,.14,1.38c0,.16,0,.33,0,.5a8.21,8.21,0,0,1-.57,2.74,8.08,8.08,0,0,1-1.74,2.6l0,0-.05,0c2.29,1,5,.83,7.18.53a44.39,44.39,0,0,1,14.17.12,47,47,0,0,1,0-14.44,20,20,0,0,0,.16-4.48c.24-.2.51-.38.73-.6Zm-46.3,23.15a8.71,8.71,0,0,1-6.29-2.53,8.48,8.48,0,0,1-2.52-6.19,6.27,6.27,0,0,1,1-3.24c.35,0,.69.1,1.06.1a10.18,10.18,0,0,0,1.25-.12v0a14,14,0,0,0,.12,1.5,22,22,0,0,1,0,7,23.3,23.3,0,0,1,7.18,0,11.56,11.56,0,0,0,1.48.11h0c-.05.43-.12.84-.13,1.28s.07.71.11,1.06a8.3,8.3,0,0,1-1.45.68A7.34,7.34,0,0,1,780.13,581.57Zm-2-12.21h0c.37-.15,4.75-.17,6.35-.42-.26,1.57-.45,5.69-.61,6h0a3,3,0,0,1-1.17.2,6.84,6.84,0,0,1-.81-.06,12.76,12.76,0,0,0-3.91,0h0a12,12,0,0,0,0-3.83,6.84,6.84,0,0,1-.06-.81A2.76,2.76,0,0,1,778.17,569.36Zm-4.88-31a8.44,8.44,0,0,1,6.19-2.53,7.53,7.53,0,0,1,1.81.35,7.05,7.05,0,0,1,1.43.71c0,.35-.1.68-.1,1a10.16,10.16,0,0,0,.12,1.26h0a11.84,11.84,0,0,0-1.5.12,21.79,21.79,0,0,1-7,0,23.29,23.29,0,0,1,0,7.18,12.23,12.23,0,0,0-.11,1.39c-.23,0-.45-.07-.68-.07a11.11,11.11,0,0,0-1.66.17,8.3,8.3,0,0,1-.68-1.45,7.42,7.42,0,0,1-.33-1.85A8.71,8.71,0,0,1,773.29,538.41Zm4.06,10.07h0a2.92,2.92,0,0,1-.2-1.17,7,7,0,0,1,.06-.81,12.75,12.75,0,0,0,0-3.91h0a12,12,0,0,0,3.83,0,6.84,6.84,0,0,1,.81-.06,2.6,2.6,0,0,1,1.13.2h0c.15.37.16,4.74.42,6.35C781.81,548.83,777.7,548.63,777.35,548.48Zm30.33-12.7A8.7,8.7,0,0,1,814,538.3a8.48,8.48,0,0,1,2.53,6.2,7.62,7.62,0,0,1-.35,1.81,7.05,7.05,0,0,1-.71,1.43,9.11,9.11,0,0,0-1.05-.11,10.13,10.13,0,0,0-1.26.13v0a11.84,11.84,0,0,0-.12-1.5,22.1,22.1,0,0,1,0-7,23.33,23.33,0,0,1-7.18,0,13.45,13.45,0,0,0-1.47-.12c0-.37.11-.73.11-1.13a11.61,11.61,0,0,0-.12-1.2,7.07,7.07,0,0,1,1.45-.68A7.34,7.34,0,0,1,807.68,535.78Zm2,12.21h0c-.37.16-4.74.17-6.35.42.26-1.57.46-5.68.61-6h0a2.91,2.91,0,0,1,1.17-.19,7,7,0,0,1,.81.06,12.73,12.73,0,0,0,3.9,0h0a11.7,11.7,0,0,0,0,3.83,7.18,7.18,0,0,1,.06.82A2.76,2.76,0,0,1,809.64,548Zm.83,20.88h0a2.78,2.78,0,0,1,.2,1.17,6.84,6.84,0,0,1-.06.81,12.79,12.79,0,0,0,0,3.91h0a12,12,0,0,0-3.84,0,6.84,6.84,0,0,1-.81.06,2.76,2.76,0,0,1-1.13-.2h0c-.16-.37-.17-4.75-.42-6.35C806,568.52,810.11,568.71,810.47,568.87Zm4.06,10.07a8.52,8.52,0,0,1-6.2,2.52,7.05,7.05,0,0,1-1.81-.34,7.71,7.71,0,0,1-1.41-.7c0-.3.09-.6.1-.92a13,13,0,0,0-.14-1.41h0a14,14,0,0,0,1.5-.12,22,22,0,0,1,7,0,23.3,23.3,0,0,1,0-7.18,11.87,11.87,0,0,0,.11-1.38c.23,0,.45.06.69.06a11.11,11.11,0,0,0,1.65-.16,7.07,7.07,0,0,1,.68,1.45,7.34,7.34,0,0,1,.33,1.85A8.72,8.72,0,0,1,814.53,578.94Z" transform="translate(-761.38 -525.95)"/></svg>