<svg xmlns="http://www.w3.org/2000/svg" viewBox="0 0 52.38 48.36"><defs><style>.a{fill:#fff;}</style></defs><path class="a" d="M429.56,213.39l-3.46-6.11a9.34,9.34,0,0,0-1-.81,16,16,0,0,0-.15-3.28,35.61,35.61,0,0,1,.09-11.42,37.52,37.52,0,0,1-11.62,0,16.74,16.74,0,0,0-3.36-.17,8.5,8.5,0,0,0-.78-.91L403,187.24l-6.11,3.47a9,9,0,0,0-.81.95,16.1,16.1,0,0,0-3.29.16,36.13,36.13,0,0,1-11.41-.09,38.15,38.15,0,0,1,0,11.62,16.28,16.28,0,0,0-.16,3.59l-.56.5-3.47,6.36,3.47,6.11a9.22,9.22,0,0,0,1,.81,16,16,0,0,0,.16,3.28,35.93,35.93,0,0,1-.1,11.42,37.59,37.59,0,0,1,11.63,0,11.43,11.43,0,0,0,5.89-.38l-.13-.12.07,0a6.55,6.55,0,0,1-1.4-2.1,5.94,5.94,0,0,1-.43-1.63l0,0a6.72,6.72,0,0,1,.44-3.19l.81-9.25-9.31.83a6.45,6.45,0,0,1-1.39.4h-.08l-.57.06h-.63a6.41,6.41,0,0,1-2.16-.47,6.55,6.55,0,0,1-2.1-1.4l-2.28-4.54,2.28-4.55a6.55,6.55,0,0,1,2.1-1.4,6.42,6.42,0,0,1,1.13-.35,6.57,6.57,0,0,1,3.16.45l9.26.8-.84-9.3a7.44,7.44,0,0,1-.39-1.39s0-.06,0-.09c0-.18,0-.37-.05-.57s0-.14,0-.22,0-.27,0-.4a6.41,6.41,0,0,1,.46-2.17,6.59,6.59,0,0,1,1.41-2.09l4.54-2.29,4.55,2.29a6.56,6.56,0,0,1,1.4,2.09,6.83,6.83,0,0,1,.4,1.49h0a6.68,6.68,0,0,1-.44,3.18l-.8,9.25,9.3-.83a6.62,6.62,0,0,1,1.39-.4H419a5.07,5.07,0,0,1,.56,0l.22,0h.41a6.42,6.42,0,0,1,2.17.47,6.51,6.51,0,0,1,2.09,1.4l2.29,4.54-2.29,4.55a6.37,6.37,0,0,1-3.23,1.75,6.6,6.6,0,0,1-3.16-.45l-9.25-.8.83,9.31s0,0,0,0h0a7,7,0,0,1,.33,1.1l0,.1.06.41c0,.14,0,.27,0,.41v.17a6.85,6.85,0,0,1,0,.78h0a6.19,6.19,0,0,1-.45,1.93,6.72,6.72,0,0,1-1.4,2.1h0l0,0a10.92,10.92,0,0,0,5.78.42,36.19,36.19,0,0,1,11.42.09,37.53,37.53,0,0,1,0-11.62,16.29,16.29,0,0,0,.15-3.59c.2-.16.39-.33.57-.5ZM392.28,232a7,7,0,0,1-5.07-2,6.83,6.83,0,0,1-2-5,5.18,5.18,0,0,1,.82-2.57,8.49,8.49,0,0,0,.88.05c.35,0,.68,0,1-.07a11,11,0,0,0,.1,1.19,17.88,17.88,0,0,1,0,5.66,18.6,18.6,0,0,1,5.78,0c.37,0,.77.08,1.18.09a8.62,8.62,0,0,0-.07,1c0,.3,0,.59,0,.87a6,6,0,0,1-1.12.53A5.9,5.9,0,0,1,392.28,232Zm-1.58-9.83h0c.3-.12,3.82-.13,5.11-.33-.2,1.26-.36,4.57-.49,4.86h0a2.36,2.36,0,0,1-.94.16c-.23,0-.45,0-.66,0a10.29,10.29,0,0,0-3.14,0h0a9.64,9.64,0,0,0,0-3.08,4.65,4.65,0,0,1,0-.66A2.19,2.19,0,0,1,390.7,222.2Zm-3.93-24.92a6.83,6.83,0,0,1,5-2,5.63,5.63,0,0,1,1.46.28,5.22,5.22,0,0,1,1.11.55c0,.28,0,.57,0,.87s0,.68.06,1a10.81,10.81,0,0,0-1.18.1,17.65,17.65,0,0,1-5.67,0,19,19,0,0,1,0,5.78,9.42,9.42,0,0,0-.09,1.09c-.18,0-.36,0-.55,0a9.54,9.54,0,0,0-1.34.12,6,6,0,0,1-.54-1.15,5.84,5.84,0,0,1-.27-1.49A7,7,0,0,1,386.77,197.28Zm3.27,8.1h0a2.17,2.17,0,0,1-.16-.94,4.4,4.4,0,0,1,.05-.65,10.08,10.08,0,0,0,0-3.15h0a9.67,9.67,0,0,0,3.09,0,4.65,4.65,0,0,1,.66-.05,2.31,2.31,0,0,1,.9.16h0c.13.3.14,3.82.34,5.11C393.63,205.67,390.32,205.51,390,205.38Zm24.43-10.22a7,7,0,0,1,5.06,2,6.79,6.79,0,0,1,2,5,5.69,5.69,0,0,1-.27,1.46,6.36,6.36,0,0,1-.55,1.11c-.29,0-.58,0-.87-.05s-.69,0-1,.07a9,9,0,0,0-.09-1.19,17.84,17.84,0,0,1,0-5.66,18.6,18.6,0,0,1-5.78,0c-.36,0-.75-.08-1.15-.09a8.92,8.92,0,0,0,0-.91,8,8,0,0,0-.06-1,6.79,6.79,0,0,1,1.13-.53A6,6,0,0,1,414.47,195.16ZM416,205h0c-.3.12-3.82.13-5.11.33.21-1.26.37-4.57.49-4.86h0a2.38,2.38,0,0,1,.95-.16c.22,0,.45,0,.65,0a10.36,10.36,0,0,0,3.15,0h0a9.64,9.64,0,0,0,0,3.08q0,.32.06.66A2.2,2.2,0,0,1,416,205Zm.67,16.82h0a2.51,2.51,0,0,1,.16.94,6.26,6.26,0,0,1-.06.65,10.39,10.39,0,0,0,0,3.15h0a9.67,9.67,0,0,0-3.09,0,4.51,4.51,0,0,1-.65.05,2.36,2.36,0,0,1-.91-.16h0c-.12-.3-.13-3.82-.34-5.11C413.11,221.52,416.42,221.68,416.71,221.81Zm3.27,8.1a6.85,6.85,0,0,1-5,2,5.1,5.1,0,0,1-2.56-.82c0-.25,0-.5,0-.76a8.35,8.35,0,0,0-.08-1.13,11,11,0,0,0,1.19-.1,17.65,17.65,0,0,1,5.67,0,19,19,0,0,1,0-5.78,9.42,9.42,0,0,0,.09-1.09c.18,0,.37,0,.56,0a9.81,9.81,0,0,0,1.34-.12,6.66,6.66,0,0,1,.54,1.15,5.82,5.82,0,0,1,.26,1.49A7,7,0,0,1,420,229.91Z" transform="translate(-377.18 -187.24)"/></svg>