<svg xmlns="http://www.w3.org/2000/svg" viewBox="0 0 50 50.017">
  <defs>
    <style>
      .cls-1 {
        fill: #fff;
      }
    </style>
  </defs>
  <path id="Path_5" data-name="Path 5" class="cls-1" d="M20.388,32.474a19.82,19.82,0,0,1-1.239-7.181,20.389,20.389,0,0,1,1.222-7.248A17.021,17.021,0,0,1,22.8,13.592h-.251a7.046,7.046,0,0,0-3.331.8,7.768,7.768,0,0,0-2.678,2.36,9.619,9.619,0,0,0-.9,1.59c.017.017.033.017.05.033l.536-.87h1.021L17.359,24H16.3a15.5,15.5,0,0,0-.619-2.059,8.767,8.767,0,0,0-.753-1.59c-.017.067-.05.151-.067.218a20.475,20.475,0,0,0-.619,5.172,16.138,16.138,0,0,0,.636,4.62,13.294,13.294,0,0,0,.988,2.394c.134-.167.268-.335.4-.519a8.183,8.183,0,0,0,.8-1.573l.971.469A9.743,9.743,0,0,1,16.5,33.78a3.4,3.4,0,0,0,.218.3,8.662,8.662,0,0,0,2.8,2.461,7.415,7.415,0,0,0,3.616.887h.2A16.908,16.908,0,0,1,20.388,32.474Zm0,0a19.82,19.82,0,0,1-1.239-7.181,20.389,20.389,0,0,1,1.222-7.248A17.021,17.021,0,0,1,22.8,13.592h-.251a7.046,7.046,0,0,0-3.331.8,7.768,7.768,0,0,0-2.678,2.36,9.619,9.619,0,0,0-.9,1.59c.017.017.033.017.05.033l.536-.87h1.021L17.359,24H16.3a15.5,15.5,0,0,0-.619-2.059,8.767,8.767,0,0,0-.753-1.59c-.017.067-.05.151-.067.218a20.475,20.475,0,0,0-.619,5.172,16.138,16.138,0,0,0,.636,4.62,13.294,13.294,0,0,0,.988,2.394c.134-.167.268-.335.4-.519a8.183,8.183,0,0,0,.8-1.573l.971.469A9.743,9.743,0,0,1,16.5,33.78a3.4,3.4,0,0,0,.218.3,8.662,8.662,0,0,0,2.8,2.461,7.415,7.415,0,0,0,3.616.887h.2A16.908,16.908,0,0,1,20.388,32.474Zm-9.608-.82A15.488,15.488,0,0,1,9.792,26a16.052,16.052,0,0,1,.971-5.725,15.748,15.748,0,0,1,.971-2.076,3.641,3.641,0,0,0-.435-.017,4.9,4.9,0,0,0-2.31.552,5.08,5.08,0,0,0-1.858,1.64,7.89,7.89,0,0,0-1.172,2.645A13.937,13.937,0,0,0,5.541,26.6a11.391,11.391,0,0,0,.435,3.214,8.338,8.338,0,0,0,1.272,2.561A5.872,5.872,0,0,0,9.19,34.081,5.076,5.076,0,0,0,11.7,34.7c.234,0,.469-.017.7-.033A12.949,12.949,0,0,1,10.78,31.654Zm9.608.82a19.82,19.82,0,0,1-1.239-7.181,20.389,20.389,0,0,1,1.222-7.248A17.021,17.021,0,0,1,22.8,13.592h-.251a7.046,7.046,0,0,0-3.331.8,7.768,7.768,0,0,0-2.678,2.36,9.619,9.619,0,0,0-.9,1.59c.017.017.033.017.05.033l.536-.87h1.021L17.359,24H16.3a15.5,15.5,0,0,0-.619-2.059,8.767,8.767,0,0,0-.753-1.59c-.017.067-.05.151-.067.218a20.475,20.475,0,0,0-.619,5.172,16.138,16.138,0,0,0,.636,4.62,13.294,13.294,0,0,0,.988,2.394c.134-.167.268-.335.4-.519a8.183,8.183,0,0,0,.8-1.573l.971.469A9.743,9.743,0,0,1,16.5,33.78a3.4,3.4,0,0,0,.218.3,8.662,8.662,0,0,0,2.8,2.461,7.415,7.415,0,0,0,3.616.887h.2A16.908,16.908,0,0,1,20.388,32.474Zm0,0a19.82,19.82,0,0,1-1.239-7.181,20.389,20.389,0,0,1,1.222-7.248A17.021,17.021,0,0,1,22.8,13.592h-.251a7.046,7.046,0,0,0-3.331.8,7.768,7.768,0,0,0-2.678,2.36,9.619,9.619,0,0,0-.9,1.59c.017.017.033.017.05.033l.536-.87h1.021L17.359,24H16.3a15.5,15.5,0,0,0-.619-2.059,8.767,8.767,0,0,0-.753-1.59c-.017.067-.05.151-.067.218a20.475,20.475,0,0,0-.619,5.172,16.138,16.138,0,0,0,.636,4.62,13.294,13.294,0,0,0,.988,2.394c.134-.167.268-.335.4-.519a8.183,8.183,0,0,0,.8-1.573l.971.469A9.743,9.743,0,0,1,16.5,33.78a3.4,3.4,0,0,0,.218.3,8.662,8.662,0,0,0,2.8,2.461,7.415,7.415,0,0,0,3.616.887h.2A16.908,16.908,0,0,1,20.388,32.474ZM9.809,26a16.052,16.052,0,0,1,.971-5.725,15.748,15.748,0,0,1,.971-2.076,3.641,3.641,0,0,0-.435-.017,4.9,4.9,0,0,0-2.31.552,5.08,5.08,0,0,0-1.858,1.64,7.89,7.89,0,0,0-1.172,2.645A13.937,13.937,0,0,0,5.557,26.6a11.391,11.391,0,0,0,.435,3.214,8.338,8.338,0,0,0,1.272,2.561,5.872,5.872,0,0,0,1.942,1.707,5.076,5.076,0,0,0,2.511.619c.234,0,.469-.017.7-.033a13.565,13.565,0,0,1-1.607-3.013A14.817,14.817,0,0,1,9.809,26ZM0,0V50.017H50V0ZM42.2,40.291a14.356,14.356,0,0,1-7.918,2.126,14.223,14.223,0,0,1-5.708-1.172,14.605,14.605,0,0,1-3.515-2.159,13.032,13.032,0,0,1-3.314.4,11.231,11.231,0,0,1-4.5-.921,11.557,11.557,0,0,1-3.817-2.662l-.1-.1a8.936,8.936,0,0,1-2.561.352,8.049,8.049,0,0,1-3.13-.636,8.314,8.314,0,0,1-2.662-1.858,9.146,9.146,0,0,1-1.825-2.946,10.769,10.769,0,0,1-.686-3.934,11.085,11.085,0,0,1,.67-3.967,9.349,9.349,0,0,1,1.841-3.063,8.3,8.3,0,0,1,6.16-2.678,9.608,9.608,0,0,1,1.239.084,13.155,13.155,0,0,1,1.038-1.306,11.4,11.4,0,0,1,3.984-2.829,12.071,12.071,0,0,1,4.9-1,15.036,15.036,0,0,1,1.758.1,14.8,14.8,0,0,1,4.737-3.264A15.553,15.553,0,0,1,35,7.583a14.758,14.758,0,0,1,4.453.619,16.434,16.434,0,0,1,3.8,1.707l.954-1.59h1.875L46.3,20.187H44.376a28.044,28.044,0,0,0-1.122-3.766A14.6,14.6,0,0,0,41.5,12.99,8.6,8.6,0,0,0,38.818,10.5a6.889,6.889,0,0,0-3.532-.9,9.13,9.13,0,0,0-4.235,1,9.482,9.482,0,0,0-3.2,2.728c.318.167.636.335.954.536l.753-1.255h1.473l.167,9.374H29.679A24.106,24.106,0,0,0,28.791,19,10.812,10.812,0,0,0,27.4,16.287a7.46,7.46,0,0,0-.787-.954,17.406,17.406,0,0,0-1.1,3.08,25.579,25.579,0,0,0-.77,6.562,20.236,20.236,0,0,0,.8,5.859,14.956,14.956,0,0,0,2.31,4.687,1.277,1.277,0,0,1,.134.184L28,35.688a9.119,9.119,0,0,0,1.624-1.858,10.261,10.261,0,0,0,1.155-2.26l1.389.67a12.7,12.7,0,0,1-3.08,4.7,11.347,11.347,0,0,0,2.293,1.707,9.353,9.353,0,0,0,4.587,1.122,9.843,9.843,0,0,0,3.5-.6,9.321,9.321,0,0,0,2.762-1.59,11.957,11.957,0,0,0,2.059-2.343,13.532,13.532,0,0,0,1.456-2.862l1.758.837A14.136,14.136,0,0,1,42.2,40.291Zm-23.05-15a20.389,20.389,0,0,1,1.222-7.248A17.021,17.021,0,0,1,22.8,13.592h-.251a7.046,7.046,0,0,0-3.331.8,7.768,7.768,0,0,0-2.678,2.36,9.619,9.619,0,0,0-.9,1.59c.017.017.033.017.05.033l.536-.87h1.021L17.359,24H16.3a15.5,15.5,0,0,0-.619-2.059,8.767,8.767,0,0,0-.753-1.59c-.017.067-.05.151-.067.218a20.475,20.475,0,0,0-.619,5.172,16.138,16.138,0,0,0,.636,4.62,13.294,13.294,0,0,0,.988,2.394c.134-.167.268-.335.4-.519a8.183,8.183,0,0,0,.8-1.573l.971.469A9.743,9.743,0,0,1,16.5,33.78a3.4,3.4,0,0,0,.218.3,8.662,8.662,0,0,0,2.8,2.461,7.415,7.415,0,0,0,3.616.887h.2a16.441,16.441,0,0,1-2.913-4.921A19.429,19.429,0,0,1,19.15,25.293Zm-9.34.7a16.052,16.052,0,0,1,.971-5.725,15.748,15.748,0,0,1,.971-2.076,3.641,3.641,0,0,0-.435-.017,4.9,4.9,0,0,0-2.31.552,5.08,5.08,0,0,0-1.858,1.64,7.89,7.89,0,0,0-1.172,2.645A13.937,13.937,0,0,0,5.557,26.6a11.391,11.391,0,0,0,.435,3.214,8.338,8.338,0,0,0,1.272,2.561,5.872,5.872,0,0,0,1.942,1.707,5.076,5.076,0,0,0,2.511.619c.234,0,.469-.017.7-.033a13.565,13.565,0,0,1-1.607-3.013A14.817,14.817,0,0,1,9.809,26Zm.971,5.658A15.488,15.488,0,0,1,9.792,26a16.052,16.052,0,0,1,.971-5.725,15.748,15.748,0,0,1,.971-2.076,3.641,3.641,0,0,0-.435-.017,4.9,4.9,0,0,0-2.31.552,5.08,5.08,0,0,0-1.858,1.64,7.89,7.89,0,0,0-1.172,2.645A13.937,13.937,0,0,0,5.541,26.6a11.391,11.391,0,0,0,.435,3.214,8.338,8.338,0,0,0,1.272,2.561A5.872,5.872,0,0,0,9.19,34.081,5.076,5.076,0,0,0,11.7,34.7c.234,0,.469-.017.7-.033A12.949,12.949,0,0,1,10.78,31.654Zm9.608.82a19.82,19.82,0,0,1-1.239-7.181,20.389,20.389,0,0,1,1.222-7.248A17.021,17.021,0,0,1,22.8,13.592h-.251a7.046,7.046,0,0,0-3.331.8,7.768,7.768,0,0,0-2.678,2.36,9.619,9.619,0,0,0-.9,1.59c.017.017.033.017.05.033l.536-.87h1.021L17.359,24H16.3a15.5,15.5,0,0,0-.619-2.059,8.767,8.767,0,0,0-.753-1.59c-.017.067-.05.151-.067.218a20.475,20.475,0,0,0-.619,5.172,16.138,16.138,0,0,0,.636,4.62,13.294,13.294,0,0,0,.988,2.394c.134-.167.268-.335.4-.519a8.183,8.183,0,0,0,.8-1.573l.971.469A9.743,9.743,0,0,1,16.5,33.78a3.4,3.4,0,0,0,.218.3,8.662,8.662,0,0,0,2.8,2.461,7.415,7.415,0,0,0,3.616.887h.2A16.908,16.908,0,0,1,20.388,32.474Zm0,0a19.82,19.82,0,0,1-1.239-7.181,20.389,20.389,0,0,1,1.222-7.248A17.021,17.021,0,0,1,22.8,13.592h-.251a7.046,7.046,0,0,0-3.331.8,7.768,7.768,0,0,0-2.678,2.36,9.619,9.619,0,0,0-.9,1.59c.017.017.033.017.05.033l.536-.87h1.021L17.359,24H16.3a15.5,15.5,0,0,0-.619-2.059,8.767,8.767,0,0,0-.753-1.59c-.017.067-.05.151-.067.218a20.475,20.475,0,0,0-.619,5.172,16.138,16.138,0,0,0,.636,4.62,13.294,13.294,0,0,0,.988,2.394c.134-.167.268-.335.4-.519a8.183,8.183,0,0,0,.8-1.573l.971.469A9.743,9.743,0,0,1,16.5,33.78a3.4,3.4,0,0,0,.218.3,8.662,8.662,0,0,0,2.8,2.461,7.415,7.415,0,0,0,3.616.887h.2A16.908,16.908,0,0,1,20.388,32.474Zm0,0a19.82,19.82,0,0,1-1.239-7.181,20.389,20.389,0,0,1,1.222-7.248A17.021,17.021,0,0,1,22.8,13.592h-.251a7.046,7.046,0,0,0-3.331.8,7.768,7.768,0,0,0-2.678,2.36,9.619,9.619,0,0,0-.9,1.59c.017.017.033.017.05.033l.536-.87h1.021L17.359,24H16.3a15.5,15.5,0,0,0-.619-2.059,8.767,8.767,0,0,0-.753-1.59c-.017.067-.05.151-.067.218a20.475,20.475,0,0,0-.619,5.172,16.138,16.138,0,0,0,.636,4.62,13.294,13.294,0,0,0,.988,2.394c.134-.167.268-.335.4-.519a8.183,8.183,0,0,0,.8-1.573l.971.469A9.743,9.743,0,0,1,16.5,33.78a3.4,3.4,0,0,0,.218.3,8.662,8.662,0,0,0,2.8,2.461,7.415,7.415,0,0,0,3.616.887h.2A16.908,16.908,0,0,1,20.388,32.474Z"/>
</svg>
