<svg xmlns="http://www.w3.org/2000/svg" viewBox="0 0 1260.79 300.83"><defs><style>.cls-1{fill:#454c57;}</style></defs><g id="Layer_2" data-name="Layer 2"><g id="Layer_1-2" data-name="Layer 1"><path class="cls-1" d="M371.63,204.55c0-13.5,10.28-23.45,24.19-23.45,6.72,0,12.78,2.24,16.86,6.72l-3.1,3.1A18.26,18.26,0,0,0,396,185.45c-11.14,0-19.51,8.16-19.51,19.1s8.37,19.12,19.51,19.12a18.09,18.09,0,0,0,13.63-5.53l3.1,3.09c-4.08,4.48-10.14,6.79-16.93,6.79C381.91,228,371.63,218.06,371.63,204.55Z"/><path class="cls-1" d="M427.93,204.55c0-13.43,10.27-23.45,24.25-23.45,13.83,0,24.18,10,24.18,23.45S466,228,452.18,228C438.2,228,427.93,218,427.93,204.55Zm43.55,0c0-11-8.24-19.1-19.3-19.1s-19.45,8.1-19.45,19.1,8.31,19.12,19.45,19.12S471.48,215.57,471.48,204.55Z"/><path class="cls-1" d="M545.11,181.5v46.12h-4.68v-36.9l-18.12,31H520l-18.12-30.84v36.7H497.2V181.5h4l20,34.19,19.83-34.19Z"/><path class="cls-1" d="M618,181.5v46.12h-4.68v-36.9l-18.13,31h-2.3l-18.12-30.84v36.7H570V181.5h4l20,34.19,19.83-34.19Z"/><path class="cls-1" d="M642.48,207.92V181.5h4.88v26.22c0,10.94,5.14,15.95,14.1,15.95s14.17-5,14.17-15.95V181.5h4.75v26.42c0,13.24-7.12,20.1-18.92,20.1S642.48,221.16,642.48,207.92Z"/><path class="cls-1" d="M743.52,181.5v46.12h-4l-29.66-37.43v37.43H705V181.5h4l29.72,37.42V181.5Z"/><path class="cls-1" d="M768.45,181.5h4.88v46.12h-4.88Z"/><path class="cls-1" d="M807.21,185.71H791V181.5h37.3v4.21H812.09v41.91h-4.88Z"/><path class="cls-1" d="M861.45,211.67v16h-4.8v-16L838.2,181.5h5.21l15.81,25.89L875,181.5h4.87Z"/><path class="cls-1" d="M920.46,204.55c0-13.5,10.28-23.45,24.18-23.45,6.73,0,12.79,2.24,16.87,6.72l-3.1,3.1a18.26,18.26,0,0,0-13.63-5.47c-11.14,0-19.51,8.16-19.51,19.1s8.37,19.12,19.51,19.12a18.09,18.09,0,0,0,13.63-5.53l3.1,3.09c-4.08,4.48-10.14,6.79-16.93,6.79C930.74,228,920.46,218.06,920.46,204.55Z"/><path class="cls-1" d="M1020.38,181.5v46.12h-4.81V206.34H986.7v21.28h-4.87V181.5h4.87v20.55h28.87V181.5Z"/><path class="cls-1" d="M1044.91,207.92V181.5h4.89v26.22c0,10.94,5.13,15.95,14.09,15.95s14.17-5,14.17-15.95V181.5h4.74v26.42c0,13.24-7.12,20.1-18.91,20.1S1044.91,221.16,1044.91,207.92Z"/><path class="cls-1" d="M1138.9,227.62l-10.54-14.83a30.89,30.89,0,0,1-3.69.2h-12.39v14.63h-4.87V181.5h17.26c11.73,0,18.85,5.92,18.85,15.81,0,7.24-3.82,12.32-10.55,14.5l11.28,15.81Zm-.26-30.31c0-7.38-4.87-11.6-14.1-11.6h-12.26v23.13h12.26C1133.77,208.84,1138.64,204.55,1138.64,197.31Z"/><path class="cls-1" d="M1160.87,204.55c0-13.5,10.28-23.45,24.18-23.45,6.73,0,12.78,2.24,16.87,6.72l-3.1,3.1a18.3,18.3,0,0,0-13.64-5.47c-11.14,0-19.5,8.16-19.5,19.1s8.36,19.12,19.5,19.12a18.13,18.13,0,0,0,13.64-5.53l3.1,3.09c-4.09,4.48-10.14,6.79-16.94,6.79C1171.15,228,1160.87,218.06,1160.87,204.55Z"/><path class="cls-1" d="M1260.79,181.5v46.12H1256V206.34h-28.87v21.28h-4.87V181.5h4.87v20.55H1256V181.5Z"/><path class="cls-1" d="M428.61,141.47A44.88,44.88,0,0,1,405.89,148q-14.81,0-23.8-9.32t-9-25q0-16.45,9.12-25.52t24.06-9.06a51.55,51.55,0,0,1,22.33,5.36V102H421V89.28a35.41,35.41,0,0,0-15.31-3.19q-11.86,0-18.06,7.08T381.39,113q0,13,6.64,20.49t18.5,7.46q10.22,0,22.08-6.63Z"/><path class="cls-1" d="M405.89,149.32c-10.2,0-18.53-3.28-24.76-9.73s-9.37-15.16-9.37-25.94c0-11.29,3.2-20.19,9.52-26.47s14.73-9.45,25-9.45a53.15,53.15,0,0,1,22.9,5.49l.77.36v19.79H419.62V90.14a34.79,34.79,0,0,0-14-2.72c-7.47,0-13.21,2.23-17.05,6.63s-5.86,10.83-5.86,19c0,8.3,2.12,14.9,6.29,19.6s10,7,17.51,7c6.55,0,13.75-2.18,21.43-6.47l2-1.12v10.2l-.67.39A46.39,46.39,0,0,1,405.89,149.32Zm.39-68.92c-9.54,0-17.31,2.92-23.12,8.68s-8.73,14-8.73,24.57c0,10.06,2.9,18.16,8.62,24.08s13.39,8.91,22.84,8.91a43.46,43.46,0,0,0,21.38-5.95v-4.13c-7.34,3.81-14.31,5.74-20.74,5.74-8.28,0-14.84-2.66-19.5-7.92s-7-12.39-7-21.37c0-8.8,2.19-15.77,6.52-20.72s10.79-7.54,19.06-7.54a37.12,37.12,0,0,1,15.88,3.31l.77.37V100.7h5V85.28A50.06,50.06,0,0,0,406.28,80.4Z"/><path class="cls-1" d="M456.94,113.4q0-15.44,8.68-24.89t23.22-9.44q14.18,0,22.4,9.06t8.23,24.37q0,16.34-8.68,25.91T488,148q-14,0-22.52-9.38T456.94,113.4Zm8.29-.51q0,12.77,6.13,20.42T488.2,141q10.85,0,16.91-7.65t6.06-20.42q0-12.12-5.8-19.46t-17-7.34q-11.1,0-17.1,7.08T465.23,112.89Z"/><path class="cls-1" d="M488,149.32c-9.71,0-17.62-3.31-23.51-9.82s-8.84-15.26-8.84-26.1c0-10.59,3-19.26,9-25.79s14.18-9.88,24.21-9.88c9.79,0,17.66,3.19,23.39,9.5s8.58,14.78,8.58,25.27c0,11.18-3,20.2-9,26.81S497.74,149.32,488,149.32Zm.89-68.92c-9.26,0-16.74,3-22.24,9s-8.33,14.08-8.33,24c0,10.16,2.74,18.34,8.15,24.3S479,146.64,488,146.64s16.35-3.07,21.85-9.13,8.33-14.52,8.33-25c0-9.81-2.65-17.71-7.88-23.47S497.85,80.4,488.84,80.4Zm-.64,61.9c-7.54,0-13.55-2.74-17.89-8.16s-6.41-12.47-6.41-21.25S466,97.25,470.21,92.3s10.34-7.55,18.12-7.55,14,2.64,18.09,7.85,6.09,11.94,6.09,20.29c0,8.77-2.14,15.92-6.35,21.25S495.83,142.3,488.2,142.3Zm.13-54.88c-7.05,0-12.31,2.16-16.08,6.61s-5.68,10.79-5.68,18.86,2,14.74,5.83,19.58,9,7.16,15.8,7.16,12.06-2.34,15.86-7.15,5.78-11.44,5.78-19.59c0-7.73-1.86-14-5.52-18.63S495.45,87.42,488.33,87.42Z"/><path class="cls-1" d="M560.56,117.35V141h7.66v7h-23v-7h7.65V86.09h-7.65v-7h30.62q12.51,0,18.06,4.59t5.55,13.78q0,15.82-18.25,18.89v.39a17.51,17.51,0,0,1,4.22,3.19,34.81,34.81,0,0,1,4.84,6.89L598.46,141h8v7H593c-1.1-2-2.15-3.93-3.12-5.68s-1.94-3.42-2.87-5l-4.34-7.66a69,69,0,0,0-4-6.63,17.3,17.3,0,0,0-3.38-3.7,8.07,8.07,0,0,0-3.45-1.6,24.55,24.55,0,0,0-4.21-.32Zm14-7q8,0,12.31-2.93T591.19,98q0-6.25-3.77-9.06t-12.18-2.81H560.56v24.24Z"/><path class="cls-1" d="M607.84,149.32H592.18l-.39-.7c-1.09-2-2.14-3.93-3.11-5.67s-1.93-3.41-2.86-5l-4.34-7.66a72.55,72.55,0,0,0-4-6.52,16.08,16.08,0,0,0-3.11-3.41,6.54,6.54,0,0,0-2.86-1.34,22.78,22.78,0,0,0-4-.3H561.9v20.94h7.66v9.69H543.91v-9.69h7.66V87.42h-7.66V77.73h32c8.74,0,14.92,1.6,18.92,4.91s6,8.3,6,14.8c0,10.4-5.57,17-16.56,19.64A23,23,0,0,1,586.4,119a36.08,36.08,0,0,1,5.05,7.17l7.79,13.5h8.6Zm-14.07-2.68h11.4V142.3h-7.48l-8.56-14.83a33.65,33.65,0,0,0-4.63-6.62,16.76,16.76,0,0,0-3.9-3l-.71-.37V115.2L581,115c11.53-1.94,17.14-7.69,17.14-17.58,0-5.67-1.7-10-5.07-12.75s-9.23-4.29-17.21-4.29H546.58v4.35h7.66V142.3h-7.66v4.34h20.31V142.3h-7.67V116h8.35a26.13,26.13,0,0,1,4.46.34,9.28,9.28,0,0,1,4,1.85,18.29,18.29,0,0,1,3.65,4,69.55,69.55,0,0,1,4.11,6.76l4.33,7.64c.93,1.61,1.89,3.3,2.88,5Zm-19.17-35H559.22V84.75h16c6,0,10.21,1,13,3.07s4.3,5.54,4.3,10.14c0,4.77-1.62,8.32-4.84,10.54S580.2,111.67,574.6,111.67ZM561.9,109h12.7c5,0,8.94-.91,11.57-2.7,2.47-1.72,3.68-4.45,3.68-8.34s-1.05-6.37-3.22-8-6.1-2.54-11.39-2.54H561.9Z"/><path class="cls-1" d="M682.69,86.09H675v-7h23v7h-7.66V148h-7.65L644.91,93h-.51v48h7.66v7h-23v-7h7.66V86.09h-7.66v-7H644.4l37.78,54.87h.51Z"/><path class="cls-1" d="M691.68,149.32H682l-.41-.58-35.84-52.2v43.09h7.65v9.69H627.76v-9.69h7.65V87.42h-7.65V77.73h17.35l36.24,52.66v-43H673.7V77.73h25.64v9.69h-7.66Zm-8.3-2.68H689V84.75h7.65V80.4H676.37v4.35H684v50.53h-2.55L643.71,80.4H630.43v4.35h7.65V142.3h-7.65v4.34h20.29V142.3h-7.65V91.65h2.55l.4.57Z"/><path class="cls-1" d="M720.58,86.09v-7h51V99.49H764V86.09H735.9v22.33h12.76v-7.66h7.66v23h-7.66v-8.29H735.9V141H764v-13.4h7.66V148h-51v-7h7.66V86.09Z"/><path class="cls-1" d="M773,149.32H719.24v-9.69h7.67V87.42h-7.67V77.73H773v23.09H762.64V87.42h-25.4v19.66h10.08V99.43h10.33v25.64H747.32v-8.29H737.24v22.85h25.4V126.22H773Zm-51-2.68h48.37V128.9h-5v13.4H734.57V114.11H750v8.29h5V102.1h-5v7.66H734.57v-25h30.74v13.4h5V80.4H721.92v4.35h7.66V142.3h-7.66Z"/><path class="cls-1" d="M812.08,117.35V141h7.65v7h-23v-7h7.65V86.09h-7.65v-7h30.62q12.51,0,18.06,4.59T851,97.44q0,15.82-18.25,18.89v.39a17.28,17.28,0,0,1,4.21,3.19,34.77,34.77,0,0,1,4.85,6.89L850,141h8v7H844.49q-1.66-3.06-3.13-5.68c-1-1.74-1.93-3.42-2.87-5l-4.34-7.66a71.31,71.31,0,0,0-4-6.63,17.32,17.32,0,0,0-3.39-3.7,8,8,0,0,0-3.44-1.6,24.55,24.55,0,0,0-4.21-.32Zm14-7q8,0,12.32-2.93T842.71,98q0-6.25-3.77-9.06t-12.19-2.81H812.08v24.24Z"/><path class="cls-1" d="M859.36,149.32H843.7l-.39-.7q-1.65-3.06-3.12-5.66c-1-1.74-1.92-3.42-2.86-5L833,130.26a72.55,72.55,0,0,0-4-6.52,16.08,16.08,0,0,0-3.11-3.41,6.54,6.54,0,0,0-2.86-1.34,22.82,22.82,0,0,0-4-.3h-5.69v20.94h7.67v9.69H795.43v-9.69h7.66V87.42h-7.66V77.73h32c8.61,0,15,1.65,18.92,4.91s6,8.3,6,14.8c0,10.4-5.57,17-16.57,19.65A22.63,22.63,0,0,1,837.9,119a35.6,35.6,0,0,1,5.07,7.17l7.77,13.5h8.62Zm-14.08-2.68h11.4V142.3H849.2l-8.55-14.83a33.6,33.6,0,0,0-4.64-6.62,16.58,16.58,0,0,0-3.89-3l-.71-.37V115.2l1.12-.18c11.53-1.94,17.14-7.69,17.14-17.58,0-5.67-1.7-10-5.07-12.75s-9.23-4.29-17.21-4.29H798.1v4.35h7.66V142.3H798.1v4.34h20.3V142.3h-7.66V116h8.36a26.17,26.17,0,0,1,4.45.34,9.28,9.28,0,0,1,4,1.85,18.29,18.29,0,0,1,3.65,4,69.55,69.55,0,0,1,4.11,6.76l4.32,7.64c.94,1.61,1.9,3.3,2.88,5.05C843.39,143.19,844.31,144.86,845.28,146.64Zm-19.16-35H810.74V84.75h16c6,0,10.21,1,13,3.07S844,93.37,844,98c0,4.78-1.64,8.33-4.86,10.54C836.12,110.6,831.72,111.67,826.12,111.67ZM813.41,109h12.71c5,0,8.93-.91,11.55-2.7s3.7-4.44,3.7-8.34-1-6.37-3.24-8-6.08-2.54-11.38-2.54H813.41Z"/><path class="cls-1" d="M900.77,148a52,52,0,0,1-20.17-4.21V127.56h7.66v11.49A44.75,44.75,0,0,0,902,141q8,0,12.45-3.06t4.4-7.66a9.09,9.09,0,0,0-1-4.34,9.29,9.29,0,0,0-3-3.19A27.15,27.15,0,0,0,909.7,120q-3.19-1.27-7.66-2.68c-2.55-.85-5.12-1.78-7.72-2.81a37.26,37.26,0,0,1-7.14-3.69,17.14,17.14,0,0,1-5.23-5.43,14.72,14.72,0,0,1-2-7.85,16,16,0,0,1,6.82-13.4q6.83-5.1,18.19-5.1a41.51,41.51,0,0,1,19,4.34V99.49h-7.66V88.13a32.24,32.24,0,0,0-12.38-2q-7.66,0-11.68,3.12t-4,7.47a9.13,9.13,0,0,0,1.08,4.66,10.58,10.58,0,0,0,3.26,3.32,26.21,26.21,0,0,0,5.36,2.68c2.13.8,4.64,1.68,7.53,2.61,2.55.85,5.13,1.79,7.72,2.81a36.25,36.25,0,0,1,7,3.64,16.76,16.76,0,0,1,5,5.23,14.21,14.21,0,0,1,1.91,7.59,15.93,15.93,0,0,1-7,13.85Q913.16,148,900.77,148Z"/><path class="cls-1" d="M900.77,149.32A53.48,53.48,0,0,1,880.1,145l-.83-.35V126.22H889.6v11.84A44.83,44.83,0,0,0,902,139.63c5.06,0,9-.95,11.68-2.83s3.83-3.94,3.83-6.56a7.73,7.73,0,0,0-.8-3.7,8,8,0,0,0-2.58-2.73,25.91,25.91,0,0,0-5-2.53c-2.06-.83-4.61-1.73-7.56-2.65-2.59-.87-5.22-1.82-7.8-2.84a39.24,39.24,0,0,1-7.41-3.83,18.55,18.55,0,0,1-5.62-5.85,16.08,16.08,0,0,1-2.17-8.54A17.29,17.29,0,0,1,886,83.1c4.78-3.56,11.17-5.37,19-5.37a42.92,42.92,0,0,1,19.63,4.49l.73.37v18.23H915V89a32.84,32.84,0,0,0-11-1.62c-4.77,0-8.42,1-10.87,2.85s-3.49,3.93-3.49,6.41a7.82,7.82,0,0,0,.9,4,9.11,9.11,0,0,0,2.86,2.89,24.89,24.89,0,0,0,5.07,2.54c2.12.8,4.6,1.66,7.47,2.59,2.59.87,5.18,1.8,7.8,2.84a37.69,37.69,0,0,1,7.27,3.77,18.17,18.17,0,0,1,5.44,5.64,15.55,15.55,0,0,1,2.11,8.29,17.24,17.24,0,0,1-7.59,14.94C916.05,147.58,909.26,149.32,900.77,149.32ZM882,142.87a50.38,50.38,0,0,0,18.82,3.77c7.94,0,14.21-1.57,18.63-4.67s6.45-7.21,6.45-12.75a13,13,0,0,0-1.72-6.89,15.62,15.62,0,0,0-4.65-4.83,36.08,36.08,0,0,0-6.76-3.5q-3.87-1.52-7.65-2.78-4.37-1.41-7.58-2.64a27.68,27.68,0,0,1-5.64-2.82A11.79,11.79,0,0,1,888.2,102a10.36,10.36,0,0,1-1.27-5.33c0-3.31,1.52-6.18,4.53-8.52s7.12-3.41,12.5-3.41a33.56,33.56,0,0,1,12.89,2.15l.83.34V98.15h5V84.24A40.48,40.48,0,0,0,905,80.4c-7.23,0-13.08,1.63-17.38,4.84a14.58,14.58,0,0,0-6.28,12.33,13.38,13.38,0,0,0,1.77,7.15,16,16,0,0,0,4.84,5,36.17,36.17,0,0,0,6.9,3.56c2.57,1,5.12,2,7.65,2.79,3,.94,5.59,1.85,7.72,2.7a28.72,28.72,0,0,1,5.49,2.82,10.65,10.65,0,0,1,3.43,3.66,10.37,10.37,0,0,1,1.12,5c0,3.52-1.67,6.46-5,8.75-3.15,2.2-7.59,3.31-13.21,3.31a46.38,46.38,0,0,1-14.2-2l-.91-.3V128.9h-5Z"/><path class="cls-1" d="M964.45,141h7.65V86.09H956.79v13.4h-7.66V79.07h53.6V99.49h-7.66V86.09H979.76V141h7.66v7h-23Z"/><path class="cls-1" d="M988.76,149.32H963.11v-9.69h7.66V87.42H958.13v13.4H947.8V77.73h56.26v23.09H993.74V87.42H981.1v52.21h7.66Zm-23-2.68h20.31V142.3h-7.67V84.75h18v13.4h5V80.4H950.47V98.15h5V84.75h18V142.3h-7.66Z"/><path class="cls-1" d="M1028.51,113.4q0-15.44,8.68-24.89t23.22-9.44q14.16,0,22.4,9.06T1091,112.5q0,16.34-8.68,25.91T1059.52,148q-14,0-22.53-9.38T1028.51,113.4Zm8.29-.51q0,12.77,6.13,20.42t16.84,7.65q10.85,0,16.91-7.65t6.06-20.42q0-12.12-5.8-19.46t-17-7.34q-11.1,0-17.1,7.08T1036.8,112.89Z"/><path class="cls-1" d="M1059.51,149.32c-9.7,0-17.62-3.31-23.52-9.82s-8.82-15.25-8.82-26.1c0-10.61,3-19.28,9-25.79s14.17-9.88,24.21-9.88c9.79,0,17.65,3.19,23.39,9.5s8.58,14.77,8.58,25.27c0,11.19-3,20.21-9,26.81S1069.31,149.32,1059.51,149.32Zm.9-68.92c-9.26,0-16.74,3-22.24,9s-8.32,14.07-8.32,24c0,10.16,2.73,18.34,8.13,24.3s12.61,8.94,21.53,8.94,16.36-3.07,21.85-9.13,8.34-14.51,8.34-25c0-9.82-2.65-17.71-7.89-23.47S1069.42,80.4,1060.41,80.4Zm-.63,61.9c-7.55,0-13.57-2.74-17.9-8.16s-6.42-12.48-6.42-21.25,2.13-15.63,6.32-20.58,10.34-7.56,18.12-7.56,14,2.64,18.08,7.85,6.1,11.93,6.1,20.29c0,8.77-2.13,15.91-6.35,21.25S1067.4,142.3,1059.78,142.3Zm.12-54.88c-7.05,0-12.31,2.16-16.08,6.61s-5.69,10.81-5.69,18.86,2,14.74,5.84,19.58,9,7.16,15.81,7.16,12-2.34,15.86-7.15,5.76-11.44,5.76-19.59c0-7.74-1.85-14-5.51-18.63S1067,87.42,1059.9,87.42Z"/><path class="cls-1" d="M1170.41,86.09h-7.65v-7h23v7h-7.65V148h-7.66l-37.77-55h-.51v48h7.66v7h-23v-7h7.66V86.09h-7.66v-7h15.32l37.77,54.87h.51Z"/><path class="cls-1" d="M1179.41,149.32h-9.7l-.41-.58-35.84-52.2v43.09h7.67v9.69h-25.65v-9.69h7.66V87.42h-7.66V77.73h17.35l36.24,52.66v-43h-7.65V77.73h25.64v9.69h-7.65Zm-8.3-2.68h5.62V84.75h7.66V80.4h-20.3v4.35h7.65v50.53h-2.54L1131.43,80.4h-13.28v4.35h7.66V142.3h-7.66v4.34h20.3V142.3h-7.66V91.65h2.55l.41.57Z"/><path class="cls-1" d="M1208.31,86.09v-7h51V99.49h-7.66V86.09h-28.07v22.33h12.76v-7.66h7.66v23h-7.66v-8.29h-12.76V141h28.07v-13.4h7.66V148h-51v-7H1216V86.09Z"/><path class="cls-1" d="M1260.7,149.32H1207v-9.69h7.66V87.42H1207V77.73h53.72v23.09h-10.33V87.42H1225v19.66h10.1V99.43h10.32v25.64h-10.32v-8.29H1225v22.85h25.41V126.22h10.33Zm-51-2.68H1258V128.9h-5v13.4h-30.75V114.11h15.44v8.29h5V102.1h-5v7.66h-15.44v-25H1253v13.4h5V80.4h-48.37v4.35h7.66V142.3h-7.66Z"/><path class="cls-1" d="M109.89,248.93a21.54,21.54,0,0,1-30-29.43L68.49,208.36a25.15,25.15,0,0,0-1.86,10.37,58.87,58.87,0,0,0,.6,7.48,110.35,110.35,0,0,1-.18,35.25,117.31,117.31,0,0,1,36-.17,62.48,62.48,0,0,0,7.45.59,26.83,26.83,0,0,0,10.77-1.82Z"/><path class="cls-1" d="M215.41,289.22a55.1,55.1,0,0,0,0-41.86L201.71,253h0A39.91,39.91,0,0,1,193,296.56Zm-78.95,7.34a40.49,40.49,0,0,1-8.72-13,40.26,40.26,0,0,1,0-30.5h0l-13.69-5.68a55.1,55.1,0,0,0,0,41.86Z"/><path class="cls-1" d="M28.47,228.67c-1.49-11.12-2.44-24.48,2.65-36l24.81,24.52a37.05,37.05,0,0,0-4.44,8.64A35.62,35.62,0,0,0,49.76,235c-.65,12.21,5.52,24,12.67,31s19,13.24,31.49,12.66a37.79,37.79,0,0,0,9.27-1.66,38.58,38.58,0,0,0,8.83-4.31l24.82,24.53c-11.73,4.92-25.32,3.9-36.64,2.36-21.25-2.84-42.64-4.44-72.31.12C32.73,270.57,31.24,249.56,28.47,228.67Z"/><path class="cls-1" d="M32.06,136.16a40.07,40.07,0,0,1,43.52-8.71l5.68-13.7a54.76,54.76,0,0,0-59.69,11.92L0,165.2l21.57,38A55.16,55.16,0,0,0,39.4,215.11a55.1,55.1,0,0,0,41.86,0l-5.68-13.69a40.26,40.26,0,0,1-30.5,0,40.62,40.62,0,0,1-13-8.71L17.84,164.43Z"/><path class="cls-1" d="M133,196.24l-57.87,5.19a39.84,39.84,0,0,1-18.84,2.85c1.7,2.37,12.78,12.58,14.14,14.52L73,247.86l8.74,8.37,28.9,2.06c1.08,1.08,13,13.69,14.65,15.31a41.1,41.1,0,0,1,2.75-19.8Zm-20.19,49.4h0a14.41,14.41,0,0,1-5.87,1,32.75,32.75,0,0,1-4.06-.32,63.9,63.9,0,0,0-19.59.1,59.92,59.92,0,0,0,.1-19.2,31.06,31.06,0,0,1-.33-4.08,13.74,13.74,0,0,1,1-5.65h0c1.85-.78,23.75-.84,31.78-2.1C114.62,223.26,113.64,243.86,112.85,245.64Z"/><path class="cls-1" d="M76.68,109.89a21.54,21.54,0,0,1,29.43-30l11.14-11.37a25.13,25.13,0,0,0-10.36-1.86,59.18,59.18,0,0,0-7.49.6,110.35,110.35,0,0,1-35.25-.18,117.31,117.31,0,0,1,.17,36,60.51,60.51,0,0,0-.58,7.45,26.66,26.66,0,0,0,1.82,10.77Z"/><path class="cls-1" d="M96.94,28.47c11.13-1.49,24.49-2.44,36,2.65L108.38,55.93a36.86,36.86,0,0,0-8.64-4.44,35.63,35.63,0,0,0-9.08-1.73c-12.22-.65-24,5.52-31,12.67S46.39,81.47,47,93.92a38.26,38.26,0,0,0,1.66,9.27A39,39,0,0,0,52.94,112L28.42,136.84c-4.93-11.73-3.91-25.32-2.37-36.64C28.9,79,30.5,57.56,25.93,27.89,55,32.73,76.05,31.24,96.94,28.47Z"/><path class="cls-1" d="M189.45,32.06a40.29,40.29,0,0,1,8.71,13,40.26,40.26,0,0,1,0,30.5l13.7,5.68a55.1,55.1,0,0,0,0-41.86,55.16,55.16,0,0,0-11.92-17.83L160.41,0l-38,21.57A54.91,54.91,0,0,0,110.5,81.26l13.7-5.68a40.26,40.26,0,0,1,0-30.5,40.29,40.29,0,0,1,8.71-13l28.27-14.22Z"/><path class="cls-1" d="M129.38,133l-5.2-57.87a39.72,39.72,0,0,1-2.84-18.84C119,58,108.76,69.11,106.81,70.47L77.75,73l-8.37,8.74-2.06,28.9c-1.08,1.08-13.68,13-15.31,14.65a41.14,41.14,0,0,1,19.81,2.75ZM80,112.85h0A14.58,14.58,0,0,1,79,107a32.75,32.75,0,0,1,.32-4.06,63.9,63.9,0,0,0-.1-19.59,59.92,59.92,0,0,0,19.2.1,31.06,31.06,0,0,1,4.08-.33,13.74,13.74,0,0,1,5.65,1h0c.78,1.85.84,23.75,2.1,31.78C102.36,114.62,81.76,113.64,80,112.85Z"/><path class="cls-1" d="M216,78.93a21.55,21.55,0,0,1,30,29.44l11.37,11.14a25.18,25.18,0,0,0,1.86-10.37,59.18,59.18,0,0,0-.6-7.49,110.35,110.35,0,0,1,.18-35.25,117.35,117.35,0,0,1-36,.18,62.48,62.48,0,0,0-7.45-.59,26.83,26.83,0,0,0-10.77,1.82Z"/><path class="cls-1" d="M297.39,99.2c1.49,11.12,2.44,24.48-2.65,36l-24.81-24.52a37.12,37.12,0,0,0,4.44-8.65,35.55,35.55,0,0,0,1.73-9.08c.65-12.22-5.52-24-12.67-31s-19-13.24-31.49-12.65a37.77,37.77,0,0,0-9.27,1.65,39,39,0,0,0-8.83,4.32L189,30.67c11.73-4.93,25.32-3.9,36.64-2.37,21.25,2.85,42.64,4.45,72.31-.12C293.13,57.29,294.62,78.31,297.39,99.2Z"/><path class="cls-1" d="M293.8,191.71a40.62,40.62,0,0,1-13,8.71,40.26,40.26,0,0,1-30.5,0l-5.68,13.7a54.73,54.73,0,0,0,59.69-11.93l21.57-39.52-21.57-38a54.91,54.91,0,0,0-59.69-11.92l5.68,13.7a40.26,40.26,0,0,1,30.5,0,40.45,40.45,0,0,1,13,8.71L308,163.43Z"/><path class="cls-1" d="M192.82,131.63l57.87-5.19a39.6,39.6,0,0,1,18.84-2.85c-1.7-2.37-12.78-12.58-14.14-14.53L252.85,80l-8.74-8.36-28.9-2.07c-1.08-1.07-13-13.68-14.65-15.3a41.11,41.11,0,0,1-2.75,19.8ZM213,82.22h0a14.76,14.76,0,0,1,5.87-1,34.8,34.8,0,0,1,4.06.32,63.87,63.87,0,0,0,19.59-.09,59.92,59.92,0,0,0-.1,19.2,30.77,30.77,0,0,1,.33,4.07,13.71,13.71,0,0,1-1,5.65h0c-1.85.79-23.75.84-31.78,2.1C211.24,104.61,212.23,84,213,82.22Z"/><path class="cls-1" d="M249.18,218a21.55,21.55,0,0,1-29.43,30l-11.14,11.37A25.13,25.13,0,0,0,219,261.23a57.14,57.14,0,0,0,7.49-.59,110.32,110.32,0,0,1,35.25.17,117.31,117.31,0,0,1-.17-36,62.31,62.31,0,0,0,.59-7.44,26.81,26.81,0,0,0-1.83-10.77Z"/><path class="cls-1" d="M228.92,299.4c-11.13,1.48-24.49,2.44-36-2.65l24.52-24.81a37.63,37.63,0,0,0,8.64,4.44,36.52,36.52,0,0,0,9.08,1.73c12.22.65,24-5.52,31-12.67s13.24-19,12.66-31.5a38,38,0,0,0-1.66-9.27,39,39,0,0,0-4.31-8.83L297.44,191c4.93,11.72,3.91,25.32,2.37,36.63-2.85,21.26-4.44,42.65.12,72.31C270.82,295.14,249.81,296.63,228.92,299.4Z"/><path class="cls-1" d="M196.48,194.82l5.2,57.88a39.7,39.7,0,0,1,2.84,18.83c2.37-1.7,12.58-12.77,14.53-14.13l29.06-2.54,8.37-8.75,2.06-28.9c1.08-1.07,13.68-13,15.31-14.64A41.16,41.16,0,0,1,254,199.81ZM245.89,215h0a14.58,14.58,0,0,1,1,5.87,32.43,32.43,0,0,1-.32,4,63.91,63.91,0,0,0,.1,19.59,60.18,60.18,0,0,0-19.2-.09,32.92,32.92,0,0,1-4.08.32,13.73,13.73,0,0,1-5.65-1h0c-.78-1.86-.84-23.75-2.1-31.79C223.5,213.25,244.1,214.23,245.89,215Z"/></g></g></svg>