<svg id="Layer_1" data-name="Layer 1" xmlns="http://www.w3.org/2000/svg" viewBox="0 0 575.15 656.39"><path d="M1108.41,251.61,870.57,114.29a25,25,0,0,0-25,0L607.73,251.61A74.45,74.45,0,0,0,570.5,316.1V562.17a74.45,74.45,0,0,0,37.23,64.49L845.57,764a25,25,0,0,0,25,0l237.84-137.32a74.46,74.46,0,0,0,37.24-64.49V316.1A74.46,74.46,0,0,0,1108.41,251.61ZM962.68,554q-.85,5.15-1.71,6.65t-4.72,3.21A234.74,234.74,0,0,1,876.51,578q-45.88,0-82.1-17.36T737.61,512Q717,480.73,717,440.85q0-40.73,21.22-72.67t58.3-49.94q37.08-18,82.53-18A267.05,267.05,0,0,1,920,303.45q20.78,3.21,33.22,8.36c2.57.85,4.21,1.93,4.93,3.21a18.46,18.46,0,0,1,1.5,6.65l5.57,59.59c0,.86-.71,1.43-2.14,1.71a2.45,2.45,0,0,1-3-1.28q-12-35.15-34.3-53.81t-53.59-18.65q-29.16,0-52.09,15.65t-36,44.8Q771,398.84,771.05,437.85q0,39.45,13.5,69.24T821.85,553Q845.64,569,876.51,569q29.58,0,49.73-16.08t38.16-53c.28-.85,1.14-1.14,2.57-.85s2.14.85,2.14,1.71Z" transform="translate(-570.5 -110.94)"/></svg>